<?xml version="1.0" standalone="no"?>
<!DOCTYPE svg PUBLIC "-//W3C//DTD SVG 1.1//EN" "http://www.w3.org/Graphics/SVG/1.1/DTD/svg11.dtd" >
<svg xmlns="http://www.w3.org/2000/svg">
<metadata>
This is a custom SVG webfont generated by Font Squirrel.
Copyright   :        
</metadata>
<defs>
<font id="Regular" horiz-adv-x="1067" >
<font-face units-per-em="2048" ascent="1638" descent="-410" />
<missing-glyph horiz-adv-x="500" />
<glyph unicode=" "  horiz-adv-x="500" />
<glyph unicode="&#x09;" horiz-adv-x="500" />
<glyph unicode="&#xa0;" horiz-adv-x="500" />
<glyph unicode="!" horiz-adv-x="569" d="M197 987q0 156 90 156q88 0 88 -154q0 -69 -33 -255q-34 -190 -35 -318l-1 -115h-41l-1 117q-1 129 -34 319q-33 187 -33 250zM201 139q-1 38 25 65t63 27t63.5 -27t26.5 -65q0 -35 -26.5 -60.5t-63.5 -25.5q-36 0 -61.5 25t-26.5 61z" />
<glyph unicode="&#x22;" horiz-adv-x="569" d="M119 1273q0 68 49 68q50 0 50 -68q0 -53 -14.5 -163.5t-14.5 -210.5h-42q0 100 -14 210t-14 164zM353 1273q0 68 49 68q50 0 50 -68q0 -53 -14.5 -163.5t-14.5 -210.5h-42q0 100 -14 210t-14 164z" />
<glyph unicode="#" horiz-adv-x="1368" d="M94 498v88h232l84 405h-316v88h336l86 416h88l-86 -416h453l88 416h88l-88 -416h213v-88h-232l-84 -405h316v-88h-332l-88 -416h-88l88 416h-457l-88 -416h-88l88 416h-213zM414 586h454l84 405h-454z" />
<glyph unicode="$" horiz-adv-x="938" d="M53 340q0 27 20.5 48.5t47.5 21.5q51 0 88 -98q39 -106 113 -140v584q-232 144 -232 307q0 97 70 172q63 68 162 96v133h53v-127q35 5 69 5t68 -5v127h53v-133q153 -43 212 -112q28 -34 28 -68q0 -64 -60 -64q-31 0 -57 29l-40 56q-42 57 -83 92v-473q219 -134 267 -236 q24 -53 24 -123q0 -239 -291 -315v-197h-53v182q-28 -3 -57 -3q-39 0 -80 5v-184h-53v197q-94 20 -172 74q-97 67 -97 149zM203 1135q0 -103 119 -189v342q-119 -40 -119 -153zM375 158q36 -16 99 -16q18 0 38 1v492l-137 94v-571zM375 911l137 -96v467q-28 17 -84 17 q-24 0 -53 -3v-385zM565 158q168 72 168 225q0 82 -62 142q-33 32 -106 83v-450z" />
<glyph unicode="%" horiz-adv-x="1473" d="M47 1087q0 202 131 301q60 46 131 46q154 0 229 -172q35 -80 35 -175q0 -201 -131 -300q-61 -46 -133 -46q-152 0 -227 172q-35 80 -35 174zM162 1087q0 -315 147 -315q150 0 150 315q0 316 -150 316q-147 0 -147 -316zM195 74l995 1394h84l-993 -1394h-86zM899 461 q0 201 131 300q60 46 131 46q154 0 229 -172q35 -80 35 -174q0 -203 -131 -300q-61 -46 -133 -46q-152 0 -227 171q-35 80 -35 175zM1014 461q0 -316 147 -316q150 0 150 316q0 315 -150 315q-147 0 -147 -315z" />
<glyph unicode="&#x26;" horiz-adv-x="1597" d="M84 112l17 4q6 6 11 9q28 25 56 28l2 10q18 10 31 16l4 10q34 17 57 23q10 14 23 18q14 23 29 35q-5 73 20 125h9q23 40 61 51q8 155 -99 234l-3 6q-8 16 -11 29q5 82 43 141q4 16 12 29q6 39 26 64q11 81 57 139l3 8l6 19q9 21 17 35q24 66 61 102h7l21 -3l14 3l12 4 l14 3h12q14 0 22 3l9 2l21 4l17 6h11l50 7q272 37 485 -87q14 -14 21 -28l17 -10l2 -10l6 -2l3 -10q32 -37 43 -73q13 -17 17 -32l9 -23q12 -17 15 -31q20 -33 26 -65q30 -66 31 -131q7 -12 8 -34q7 -26 9 -43q16 -41 15 -79q-22 -57 -24 -103h-23l-3 -22v-70l3 -13 q28 -19 41 -45l2 -40q8 -8 12 -18q5 -12 5 -23q22 -27 26 -57q22 -31 24 -67q9 -14 17 -19v1567h-1429v-1596zM447 301q19 6 2 13zM478 835q4 -6 3 -10l3 -9l2 -21v-111q5 -13 4 -25l2 -10l-2 -7q6 -43 2 -73q9 -7 9 -18q16 -3 26 -7q-2 4 0 10l9 3l-6 7q13 32 12 66l16 -3 q-3 20 -9 36q-27 -13 -48 0v18q25 23 26 54h9v10v9v10v42l13 39l-2 6l2 9l6 55l7 25l5 23l8 18q-1 17 0 30l15 13q2 45 23 76q38 36 78 47q44 14 -41 30q-16 -7 -28 -7q-18 -23 -35 -31q-17 -32 -40 -46q6 -4 -5 -24l-19 -7l-11 -45l-2 -13v-16l-4 -8l-2 -10l-3 -23l-2 -17 l-4 -9l-3 -22l-2 -6l-4 -7v-10zM536 365q-6 -92 26 -7zM570 500q-5 -30 3 -53zM590 953q7 -12 6 -26q17 -11 14 -34q18 -3 17 -20q14 4 21 -13q13 3 22 0q-6 25 43 3q14 7 26 3q4 16 15 20q-23 -7 -41 0q-25 -19 -39 7q-18 1 -17 22q9 15 22 19q-1 -41 34 -39q16 19 15 42 q15 -4 24 -13q19 -7 19 -19q-22 -4 -37 -16q54 26 37 -13q11 11 20 17v8l4 8q-6 18 -4 35q-17 6 -20 21q-13 0 -19 10q21 -4 34 -10l5 27q-11 11 -17 22h-9q-16 7 -28 10l-24 5h-8q-29 10 -52 10q-30 -40 -63 -54q6 -15 0 -32zM605 937h13q4 38 41 51q51 0 86 -25 q-28 -6 -49 -4l-28 -2q-24 -14 -46 -10q8 -17 -12 -23zM613 1387q75 116 189 132q183 -8 291 -144q-223 72 -423 19zM674 595l20 -9q6 13 17 22q36 -37 80 -49q-36 33 0 36l-2 -7l8 13l5 4l21 -4q34 -2 57 4l12 -23q26 -4 -8 -13l5 -10h6q15 10 28 10q21 27 43 39 q21 -15 35 -10q-1 41 -22 67q-17 4 -30 0l-9 4l-2 6q-23 4 -41 12q-6 23 26 40q-13 0 -26 8q-10 -5 -20 -5q-45 -50 -88 5h-18q-10 -11 -6 -22l24 -6q8 27 17 -3l-9 -4q13 -9 -11 0l-21 -16l-5 -7q-39 -20 -69 -24q-18 -31 -17 -58zM679 950l9 7q20 -7 -9 -7zM752 633l5 -10 q-18 -4 -5 10zM763 623q3 22 37 13q-7 24 37 13q-2 17 3 28q-16 7 -19 27q15 -5 31 -4l-7 -41q17 -9 30 -6q8 -14 20 -20q2 9 8 13q11 -17 29 -16q-14 -17 -31 -3q-19 -8 -35 0l-14 -9q-4 7 2 12q-11 -4 -20 -17l-11 17q-10 -19 -28 -7h-9h-23zM776 605q6 -4 7 -7 q-16 -7 -7 7zM811 537q15 1 23 7h-11zM852 1154q-18 -20 8 -19q15 9 -8 19zM866 710l9 9q38 -11 -9 -9zM895 959q27 11 52 6q84 43 101 -2q20 -6 31 -26q17 44 -52 96q-66 1 -130 -32q-8 -23 -2 -42zM912 873q-9 36 32 16l-4 6q-18 1 -28 14q26 17 46 21q-2 -34 26 -41 q24 12 23 38q15 -6 23 -16q2 -34 -29 -28q-21 -21 -66 0l3 -7q17 -7 28 -19l4 9q15 -1 26 -6q34 23 69 26q-3 15 2 29l-8 2l-4 7l-31 26l-34 3h-9h-9h-57q-50 -37 -3 -80zM929 618v3v-3v3l6 6l12 -6zM932 940q5 -3 6 -6q-35 -18 -6 6zM961 1174q21 1 37 -10q29 3 50 -17 l11 4q9 -21 20 -35l-3 -6l5 -4l15 -70l11 -12q5 -23 4 -43l5 -6v-22q11 -16 12 -32l2 -38q5 -26 3 -44l4 -8v-25q12 -68 0 -129q17 -13 25 -31q-21 -4 -38 0l-5 -23q-6 -28 -14 -47q1 -31 -3 -52l3 -13v-105l-3 -51l9 14l2 14v17v13v16v12l3 10v9v27l3 64q2 24 5 41 q2 30 41 48q20 51 17 2q-14 -53 18 -66q2 26 19 47v26l-5 22l-3 26q-12 36 -14 61v13l-4 10v8l-8 52l-3 12v17l-2 16q-8 25 -9 44v10l-12 61v10v13l-3 22v10q-7 25 -6 47l-11 30l-9 2l-8 6l-15 16q-19 12 -31 26h-9h-8h-9q-33 14 -63 10zM964 917l2 10q12 -6 -2 -10z M984 924h8q-5 -11 -8 0z" />
<glyph unicode="'" horiz-adv-x="362" d="M82 1325q0 46 27 77.5t73 31.5q101 0 101 -109q0 -35 -25 -180l-51 -295h-49l-52 295q-24 136 -24 180z" />
<glyph unicode="(" horiz-adv-x="569" d="M84 262q0 236 172 432q89 102 254 209l16 -12q-311 -314 -311 -633q0 -148 74 -311q65 -142 233 -334l-8 -12q-161 102 -246 198q-184 207 -184 463z" />
<glyph unicode=")" horiz-adv-x="569" d="M49 -387q58 63 103 119q208 259 208 526q0 316 -311 633l17 12q168 -113 251 -209q175 -202 175 -432q0 -254 -187 -463q-85 -96 -244 -198z" />
<glyph unicode="*" horiz-adv-x="680" d="M35 1104q0 44 55 44q31 0 98 -15l80 -18q5 19 13 26l-72 50q-31 20 -80 59q-37 37 -8 70q15 13 30 13q20 0 44 -22l57 -80l47 -67q9 4 31 12l-19 80q-16 67 -16 98q0 56 43 56q47 0 47 -60l-16 -94l-15 -84q-5 0 27 -8l47 67q20 31 57 80q37 37 72 9q12 -15 12 -31 q0 -21 -22 -43q-5 -6 -80 -58l-68 -47q9 -11 17 -26l80 18q67 15 98 15q55 0 55 -44q0 -45 -59 -45q-15 0 -94 15l-84 16l-9 -29l64 -45q34 -21 80 -59q22 -23 22 -44q0 -15 -12 -30q-34 -27 -72 11q-8 8 -57 79l-47 68q-9 -5 -27 -12l15 -80q16 -85 16 -96q0 -58 -47 -58 q-43 0 -43 56q0 31 16 98l19 80q-21 4 -29 12l-49 -68q-22 -33 -57 -79q-24 -23 -45 -23q-15 0 -28.5 13.5t-13.5 29.5q0 20 21 41q8 8 80 57l72 49q-11 15 -13 29l-80 -16q-75 -15 -96 -15q-57 0 -57 45zM305 1102q0 -36 37 -36t37 36q0 37 -37 37t-37 -37zM348 791z" />
<glyph unicode="+" horiz-adv-x="946" d="M105 452v83h325v328h84v-328h321v-83h-321v-323h-84v323h-325z" />
<glyph unicode="," horiz-adv-x="569" d="M164 -202q132 119 132 221v11l-1 11q-123 0 -123 101q0 39 28 65.5t68 26.5q48 0 79.5 -40t31.5 -104q0 -166 -184 -325z" />
<glyph unicode="-" horiz-adv-x="946" d="M105 452v83h730v-83h-730z" />
<glyph unicode="." horiz-adv-x="569" d="M201 141q0 37 24 63.5t58 26.5q39 0 65.5 -26.5t26.5 -63.5t-25.5 -62.5t-60.5 -25.5q-37 0 -62.5 25.5t-25.5 62.5z" />
<glyph unicode="/" horiz-adv-x="569" d="M66 -139l376 1564h66l-379 -1564h-63z" />
<glyph unicode="0" horiz-adv-x="1004" d="M75 766q0 390 216 581q99 87 211 87q178 0 302 -198.5t124 -469.5q0 -388 -214 -578q-99 -88 -212 -88q-124 0 -228 104q-86 86 -138 218q-61 154 -61 344zM229 766q0 -253 33 -383q62 -244 240 -244q201 0 249 288q23 138 23 339q0 260 -31 386q-60 243 -241 243 q-196 0 -248 -294q-25 -141 -25 -335z" />
<glyph unicode="1" horiz-adv-x="1004" d="M182 1130q78 52 181 141q115 101 157 163h72v-1188q0 -47 15 -62.5t61 -15.5h114v-39h-516v39h111q47 0 62.5 16.5t15.5 63.5v1022q-113 -99 -256 -168z" />
<glyph unicode="2" horiz-adv-x="1004" d="M61 129v33q81 103 224 245q214 212 236 236q192 203 192 399q0 159 -133 239q-62 36 -138 36q-115 0 -205 -84q-82 -76 -116 -193h-33q20 178 134 286t280 108q222 0 328 -177q49 -84 49 -186q0 -178 -148 -328l-191 -161q-171 -143 -347 -326h538q99 0 125 57 q14 30 31 103h33l-39 -287h-820z" />
<glyph unicode="3" horiz-adv-x="1004" d="M70 246q0 26 18.5 47.5t44.5 21.5q31 0 110 -57l110 -80q35 -22 96 -22q166 0 254 186q40 85 40 184q0 109 -56 191q-63 94 -167 94q-73 0 -143 -55l-19 28q103 87 133 116q78 73 114 134q32 53 32 107q0 81 -59 134.5t-140 53.5q-85 0 -163 -62q-69 -55 -109 -139 l-37 15q71 182 224 256q73 35 155 35q158 0 232 -113q34 -53 34 -115q0 -165 -211 -289l4 -4q15 2 30 2q172 0 257 -162q43 -82 43 -173q0 -128 -76 -242q-71 -107 -188 -171q-120 -67 -254 -67q-175 0 -267 74q-42 33 -42 72z" />
<glyph unicode="4" horiz-adv-x="1004" d="M72 502v47l604 885h57v-830h205v-102h-205v-402h-137v402h-524zM168 604h428l-4 635z" />
<glyph unicode="5" horiz-adv-x="1004" d="M96 229q0 64 68 64q52 0 130 -69q82 -75 148 -75q159 0 243 174q38 79 38 171q0 143 -87 234t-218 91q-120 0 -217 -76l-21 15l29 649h485q45 0 60 27h39l-23 -160h-518l-16 -369q92 51 221 51q174 0 296 -123q124 -126 124 -296q0 -256 -236 -379q-111 -58 -246 -58 q-89 0 -176 25q-123 36 -123 104z" />
<glyph unicode="6" horiz-adv-x="1004" d="M92 633q0 301 201 519q183 197 485 282l23 -31q-319 -129 -447 -364q-65 -118 -88 -267q155 119 291 119q208 0 314 -188q49 -88 49 -189q0 -235 -200 -357q-93 -57 -200 -57q-144 0 -252 92q-100 85 -145 227q-31 97 -31 214zM246 592q0 -173 53 -294q72 -163 225 -163 q130 0 193 123q49 95 49 238q0 135 -51 229q-64 117 -189 117q-116 0 -270 -123q-10 -48 -10 -127z" />
<glyph unicode="7" horiz-adv-x="1004" d="M76 1151l14 252h811v-43l-500 -1260h-112l495 1170h-563q-63 0 -86 -28q-18 -22 -26 -91h-33z" />
<glyph unicode="8" horiz-adv-x="1004" d="M102 436q0 216 297 336q-280 125 -280 330q0 189 189 287q87 45 186 45q156 0 262 -85.5t106 -209.5q0 -194 -266 -299q307 -137 307 -363q0 -220 -199 -327q-93 -50 -204 -50q-230 0 -345 168q-53 77 -53 168zM231 440q0 -126 72 -212q76 -91 199 -91q159 0 235 140 q35 65 35 143q0 119 -114 210q-66 53 -218 122q-209 -114 -209 -312zM240 1165q0 -117 125 -202q70 -48 202 -105q172 108 172 283q0 151 -120 223q-57 33 -127 33q-145 0 -218 -114q-34 -54 -34 -118z" />
<glyph unicode="9" horiz-adv-x="1004" d="M84 1020q0 123 67.5 228t179.5 154q72 32 152 32q259 0 374 -256q54 -120 54 -277q0 -283 -182 -497q-178 -210 -504 -304l-22 31q318 128 447 364q64 118 87 267q-151 -119 -291 -119q-207 0 -313 189q-49 87 -49 188zM238 1040q0 -134 52 -229q64 -119 187 -119 q130 0 271 125q10 45 10 125q0 306 -144 411q-63 46 -135 46q-151 0 -211 -167q-30 -82 -30 -192z" />
<glyph unicode=":" horiz-adv-x="569" d="M201 141q0 37 24 63.5t58 26.5q39 0 65.5 -26.5t26.5 -63.5t-25.5 -62.5t-60.5 -25.5q-37 0 -62.5 25.5t-25.5 62.5zM201 710q0 37 24 63.5t58 26.5q39 0 65.5 -26.5t26.5 -63.5t-25.5 -62.5t-60.5 -25.5q-37 0 -62.5 25.5t-25.5 62.5z" />
<glyph unicode=";" horiz-adv-x="532" d="M139 197q0 44 33 72t78 28q66 0 106 -54q37 -48 37 -116q0 -100 -67 -184q-63 -79 -160 -117l-14 37q157 91 157 205q0 43 -28 43q-8 0 -25 -3.5t-25 -3.5q-39 0 -65.5 27t-26.5 66zM168 864q0 96 104 96q44 0 74.5 -26.5t30.5 -69.5t-30.5 -69.5t-74.5 -26.5t-74 26.5 t-30 69.5z" />
<glyph unicode="&#x3c;" horiz-adv-x="1366" d="M145 743v82l1074 455v-102l-951 -394l951 -393v-102z" />
<glyph unicode="=" horiz-adv-x="946" d="M105 362v86h731v-86h-731zM105 539v86h731v-86h-731z" />
<glyph unicode="&#x3e;" horiz-adv-x="1366" d="M147 289v102l951 393l-951 394v102l1074 -455v-82z" />
<glyph unicode="?" horiz-adv-x="725" d="M104 1329q0 96 179 96q152 0 252 -98q102 -101 102 -264q0 -224 -174 -306l-135 -63q-60 -28 -60 -73q0 -70 78 -148h-45q-100 112 -100 211q0 79 59 125q34 27 133.5 64.5t138.5 72.5q56 52 56 141q0 90 -61 139q-55 44 -148 44q-27 0 -79.5 -7.5t-78.5 -7.5 q-117 0 -117 74zM213 201q0 96 104 96q105 0 105 -96q0 -44 -30 -70.5t-75 -26.5q-44 0 -74 27t-30 70z" />
<glyph unicode="@" horiz-adv-x="1878" d="M96 573q0 410 276 696q273 283 670 283q321 0 518 -189.5t197 -496.5q0 -257 -139 -468q-156 -238 -412 -238q-153 0 -153 137q0 54 16 143l-4 4q-214 -284 -389 -284q-84 0 -136 76q-46 68 -46 155q0 153 95 325q87 159 216.5 267.5t238.5 108.5q68 0 116 -36t61 -102 l30 111l158 20l-178 -608q-33 -111 -33 -162q0 -82 78 -82q149 0 282 191q138 199 138 461q0 274 -181.5 446t-465.5 172q-383 0 -627 -298q-232 -282 -232 -656q0 -222 93 -403q99 -190 285 -296q179 -102 407 -102q367 0 610 254q120 126 193 299h57q-52 -179 -184 -322 q-127 -137 -303 -214q-180 -78 -379 -78q-376 0 -624.5 252.5t-248.5 633.5zM647 422q0 -53 31 -95q34 -46 86 -46q133 0 275.5 198.5t142.5 419.5q0 60 -32 100q-35 43 -93 43q-98 0 -209 -142q-79 -102 -135 -230q-66 -151 -66 -248z" />
<glyph unicode="A" horiz-adv-x="1386" d="M8 129v39q125 4 162 67q24 41 59 136l373 1018l-18 45h178l428 -1137q38 -100 100 -119q32 -10 86 -10v-39h-563v39h53q74 0 100 6q60 14 60 64q0 25 -22 84l-138 372h-424l-118 -321q-41 -112 -41 -129q0 -76 166 -76h32v-39h-473zM477 784h354l-180 478z" />
<glyph unicode="B" horiz-adv-x="1300" d="M0 129v39h47q157 0 186 66q15 35 15 102v850q0 100 -29 136q-33 42 -129 42h-72v39q38 2 115 6q53 3 143 6q181 6 308 6q299 0 411 -80q125 -89 125 -227q0 -122 -113 -200q-55 -38 -120 -54q196 -58 269 -195q36 -67 36 -147q0 -216 -189 -329q-100 -60 -253 -60h-750z M418 395q0 -120 58 -167q52 -44 175 -44q348 0 348 328q0 183 -164 274q-83 45 -196 45h-221v-436zM418 870h223q295 0 295 238q0 274 -338 274q-27 0 -180 -6v-506z" />
<glyph unicode="C" horiz-adv-x="1493" d="M106 750q0 194 93.5 350.5t263.5 245t379 88.5q172 0 338 -57q72 -25 94 -25q29 0 37 12h30l19 -297h-39q-73 199 -263 277q-95 38 -204 38q-344 0 -487 -284q-68 -134 -68 -307q0 -272 172 -459q169 -185 406 -185q330 0 499 304h39q-34 -111 -81 -207q-29 -57 -50 -92 q-21 3 -42 3q-17 0 -34 -2q-83 -18 -249 -48q-63 -9 -138 -9q-195 0 -355 77q-171 83 -268 241q-92 150 -92 336z" />
<glyph unicode="D" horiz-adv-x="1556" d="M31 129v39h35q114 0 144 59q17 33 17 90v881q0 127 -60 152q-34 14 -95 14h-41v39q101 5 288 12q165 6 345 6q388 0 591 -176q189 -165 189 -436q0 -181 -93 -335q-91 -150 -249 -243q-173 -102 -416 -102h-655zM397 281q0 -87 53 -102q34 -11 115 -11q263 0 386 66 q164 88 250 282q50 115 50 260q0 276 -165 441t-525 165q-64 0 -164 -8v-1093z" />
<glyph unicode="E" horiz-adv-x="1217" d="M6 129v39h57q151 0 179 68q14 35 14 100v864q0 117 -60 147q-35 17 -104 17h-45v39h983l17 -285h-37q-31 211 -152 211h-432v-504h367q65 0 93 47q19 32 25 107h39v-389h-39q-10 88 -31 119q-29 43 -108 43h-346v-437q0 -63 24 -87.5t87 -24.5h315q131 0 183 91 q28 49 55 140h36l-32 -305h-1088z" />
<glyph unicode="F" horiz-adv-x="1087" d="M88 1364v39h918v-242h-35q-2 92 -40 130t-130 38h-389v-481h405q110 0 119 131h35v-361h-35q-3 82 -33 117q-33 39 -112 39h-379v-448q0 -118 65 -143q38 -15 113 -15v-39h-498v39q61 4 85 14q41 17 54 62q11 41 11 125v802q0 108 -23 144q-31 48 -131 49z" />
<glyph unicode="G" horiz-adv-x="1516" d="M117 741q0 264 174 467q193 226 540 226q156 0 352 -56q49 -14 56 -14q30 0 47 14h29v-331h-41q-72 335 -420 335q-257 0 -406 -188q-139 -176 -139 -440q0 -290 174 -456q157 -151 357 -151q156 0 313 78v258q0 90 -36.5 123t-127.5 33h-76v37h553v-37 q-143 -9 -143 -129v-285q-248 -129 -549 -129q-191 0 -342 84q-159 89 -241 255q-74 148 -74 306z" />
<glyph unicode="H" horiz-adv-x="1622" d="M61 129v39h13q119 0 147 59q15 33 15 90v902q0 80 -34 111q-31 28 -114 34v39h487v-39q-135 0 -157 -74q-12 -42 -12 -123v-356h802v403q0 87 -37 120q-35 30 -124 30h-39v39h526v-39q-119 -4 -142 -68q-14 -37 -14 -100v-850q0 -137 66 -163q35 -15 98 -15h21v-39h-580 v39h64q122 0 148 65q13 33 13 89v415h-802v-389q0 -101 31 -138q34 -42 132 -42h6v-39h-514z" />
<glyph unicode="I" horiz-adv-x="682" d="M92 129v39q96 4 126 42q28 35 28 134v872q0 83 -36 115q-32 28 -118 33v39h498v-39q-129 0 -157 -62q-17 -36 -17 -104v-868q0 -121 67 -147q38 -15 107 -15v-39h-498z" />
<glyph unicode="J" horiz-adv-x="618" d="M-223 -238q0 31 21 56.5t52 25.5q34 0 100 -48t111 -48q168 0 168 301v1094q0 174 -57 203q-35 18 -109 18h-22v39h518v-39q-91 -3 -123 -31q-37 -31 -37 -119v-874q0 -424 -201 -603q-97 -85 -223 -85q-65 0 -122 24q-76 30 -76 86z" />
<glyph unicode="K" horiz-adv-x="1430" d="M39 129v39h37q89 0 126.5 31.5t37.5 117.5v899q0 86 -40 119q-36 29 -124 29h-37v39h553v-39h-19q-92 0 -127.5 -35.5t-35.5 -126.5v-442q109 11 229 131q163 163 247 311q38 67 38 98q0 64 -142 64v39h539v-39q-188 -2 -270 -84q-30 -30 -88 -115q-43 -63 -85 -126 q-102 -142 -235 -242q42 -6 163 -126t245 -265l97 -115q18 -22 56 -64q60 -59 228 -59v-39h-601v39q134 2 134 57q0 60 -252 312q-71 71 -102 99q-72 62 -117 78q-26 8 -58 8q-13 0 -26 -1v-383q0 -96 34 -133t129 -37h27v-39h-561z" />
<glyph unicode="L" horiz-adv-x="1130" d="M41 129v39h68q73 0 101 30.5t28 104.5v907q0 88 -36 121t-126 33h-29v39h604v-39h-76q-131 0 -153 -48q-14 -29 -14 -93v-944q0 -76 81 -76h302q105 0 175 81q36 42 111 144h37l-158 -299h-915z" />
<glyph unicode="M" horiz-adv-x="1878" d="M27 129v39q137 0 160 78q12 42 18 141l49 797q1 22 1 41q0 98 -34 119q-27 15 -90 20v37h309l494 -1032l491 1032h301v-37l-66 -6q-45 -7 -58 -23.5t-11 -50.5l66 -928q5 -65 8 -85q9 -58 30 -78q24 -25 140 -25v-39h-526v39q182 0 182 123v12l-59 918h-5l-509 -1092h-48 l-526 1092l-55 -922v-10q0 -116 164 -121v-39h-426z" />
<glyph unicode="N" horiz-adv-x="1665" d="M61 129v39h9q168 0 168 137v1008q-70 48 -172 51v39h321l965 -1006v815q0 117 -76 138q-43 12 -125 14v39h479v-39q-93 0 -125 -12q-61 -21 -61 -95v-1142h-53l-1061 1110v-879q0 -141 74 -164q42 -14 133 -14v-39h-476z" />
<glyph unicode="O" horiz-adv-x="1686" d="M109 737q0 198 94.5 358t269.5 250q171 89 385 89q297 0 508 -181t211 -452q0 -305 -212.5 -505t-516.5 -200q-194 0 -359 75q-176 81 -280 233q-100 146 -100 333zM301 801q0 -177 72 -325q77 -158 220 -245q136 -84 298 -84q314 0 438 301q55 135 55 285 q0 285 -162 467t-417 182q-245 0 -383 -193q-121 -170 -121 -388z" />
<glyph unicode="P" horiz-adv-x="1153" d="M41 1364v39q168 8 258 12q150 6 254 6q293 0 421 -118q105 -97 105 -244q0 -198 -156 -302q-134 -89 -339 -89q-93 0 -174 16v-358q0 -90 36 -124t127 -34h68v-39h-567v39h28q77 0 105 21q33 25 33 98v968q0 109 -97 109h-102zM410 723q69 -16 110 -16q226 0 322 174 q45 82 45 184q0 317 -336 317q-92 0 -141 -8v-651z" />
<glyph unicode="Q" horiz-adv-x="1686" d="M109 745q0 192 97 351q97 156 267.5 247t376.5 91q305 0 514 -177q213 -182 213 -462q0 -332 -259 -539q-125 -100 -288 -143q97 -35 289 -198q180 -152 321 -157l-32 -43q-49 -12 -95 -12q-145 0 -296 96q-23 14 -252 192q-98 76 -179 107q-184 13 -336 93 q-164 87 -254 236q-87 143 -87 318zM301 801q0 -177 72 -324q77 -158 221 -245q136 -83 297 -83q314 0 438 301q55 135 55 283q0 285 -162 467t-417 182q-245 0 -383 -193q-121 -170 -121 -388z" />
<glyph unicode="R" horiz-adv-x="1642" d="M39 129v39h35q96 0 130 36.5t34 133.5v862q0 92 -32 128t-122 36h-45v39q40 0 180 8q34 2 78 4q130 6 258 6q273 0 415 -102q134 -97 134 -262q0 -122 -78 -212q-73 -84 -195 -120q94 -73 234 -213l162 -162q128 -128 256 -176q67 -25 147 -31v-37q-45 -2 -86 -2 q-182 0 -292 49q-103 45 -255 197l-135 135q-134 134 -211 183q-102 -4 -139 -4q-40 0 -104 4v-346q0 -115 68 -141q34 -13 95 -13h47v-39h-579zM408 707q35 -5 127 -5q376 0 376 342q0 217 -161 295q-89 43 -240 43q-66 0 -102 -4v-671z" />
<glyph unicode="S" horiz-adv-x="1004" d="M90 440h39q31 -128 122 -206q95 -82 224 -82q116 0 196 61q87 68 87 180q0 104 -118 205q-43 37 -205 140q-159 100 -222 162q-113 111 -113 237q0 175 179 258q83 39 186 39q101 0 207 -36q47 -16 71 -16q22 0 37 21h33l35 -260h-35q-41 107 -128 172q-91 69 -202 69 q-96 0 -159 -47q-70 -52 -70 -145q0 -102 116 -199q36 -30 203 -134q159 -100 226 -167q112 -114 112 -246q0 -162 -131 -260q-119 -90 -286 -90q-72 0 -213 39q-62 17 -72 17q-26 0 -41 -23h-35z" />
<glyph unicode="T" horiz-adv-x="1386" d="M66 1102l32 332h39q5 -31 64 -31h985q58 0 63 31h39l33 -332h-37q-28 170 -80 208q-27 19 -69 19h-357v-1012q0 -86 39 -119q35 -30 123 -30h76v-39h-645v39h75q88 0 123 30q39 33 39 119v1012h-356q-76 0 -113 -80q-18 -39 -37 -147h-36z" />
<glyph unicode="U" horiz-adv-x="1622" d="M37 1364v39h526v-39h-18q-88 0 -125 -32t-37 -118v-569q0 -215 127 -331q122 -111 340 -111q467 0 467 444v477q0 184 -69 217q-40 18 -132 23v39h481v-39q-101 -2 -143.5 -45t-42.5 -143v-553q0 -171 -86 -297t-242 -185q-117 -45 -278 -45q-283 0 -441 149 q-151 140 -151 367v598q0 120 -64 141q-35 11 -112 13z" />
<glyph unicode="V" horiz-adv-x="1409" d="M8 1364v39h563v-39q-179 -2 -202 -62q-5 -11 -5 -25q0 -23 13 -54l368 -918l324 846q35 91 35 127q0 86 -191 86v39h476v-39q-85 0 -136 -48q-41 -39 -75 -128l-422 -1092h-103l-444 1108q-25 61 -38 85q-28 47 -65 62q-33 13 -98 13z" />
<glyph unicode="W" horiz-adv-x="2048" d="M2 1364v39h530v-39h-34q-112 0 -112 -72q0 -24 13 -57l373 -938l221 547l-166 403q-30 73 -82 98q-41 19 -129 19v39h840v-39q-81 0 -122 -19q-54 -24 -81 -90l-131 -319l269 -639l362 950q13 33 13 54q0 8 -2 14q-13 45 -154 49v39h424v-39q-117 0 -158 -64 q-25 -38 -57 -122l-412 -1082h-98l-269 633l-258 -633h-100l-426 1090q-41 105 -85 140q-49 38 -157 38h-12zM964 1324q0 -15 9 -36l102 -237l92 225q11 26 11 44q0 44 -62 44h-86q-66 0 -66 -40z" />
<glyph unicode="X" horiz-adv-x="1536" d="M18 129v39q137 11 221 87q48 44 121 132l318 383l-318 399q-59 74 -92 105q-57 55 -116 73q-53 15 -134 17v39h611v-39h-11q-154 0 -149 -53q2 -29 35 -70l278 -344l222 264q91 108 91 157q0 46 -83 46h-60v39h492v-39q-177 0 -348 -209l-262 -321l385 -480 q58 -72 81 -95q52 -52 103 -69q43 -14 127 -22v-39h-565v39q133 0 133 50q0 35 -62 112l-307 379l-326 -392q-51 -61 -51 -99q0 -50 113 -50h41v-39h-488z" />
<glyph unicode="Y" horiz-adv-x="1450" d="M-4 1364v39h545v-39q-144 0 -144 -51q0 -28 35 -82l328 -506l289 491q31 53 31 86q0 62 -136 62v39h463v-39q-93 -7 -150.5 -43.5t-105.5 -118.5l-340 -575v-308q0 -85 40 -119q37 -32 124 -32h26v-39h-563v39h39q86 0 123 30q41 33 41 117v289l-365 569q-45 70 -71 101 q-49 57 -97 74q-42 14 -112 16z" />
<glyph unicode="Z" horiz-adv-x="1386" d="M82 129v47l919 1153h-608q-128 0 -161 -81q-19 -46 -27 -134h-37l10 289h1055v-47l-926 -1153h725q133 0 171 109q19 54 48 188h37l-24 -371h-1182z" />
<glyph unicode="[" horiz-adv-x="618" d="M209 -309v1773h395v-41h-145q-57 0 -80 -12q-33 -18 -33 -68v-1531q0 -50 33 -68q23 -12 80 -12h145v-41h-395z" />
<glyph unicode="\" horiz-adv-x="938" d="M94 1434h88l662 -1334h-88z" />
<glyph unicode="]" horiz-adv-x="618" d="M14 -268h146q57 0 80 12q32 18 32 68v1531q0 50 -32 68q-23 12 -80 12h-146v41h396v-1773h-396v41z" />
<glyph unicode="^" horiz-adv-x="961" d="M37 788l428 717h31l428 -717h-95l-350 586l-348 -586h-94z" />
<glyph unicode="_" horiz-adv-x="1024" d="M-16 -25h1056v-102h-1056v102z" />
<glyph unicode="`" horiz-adv-x="682" d="M143 1419q0 60 64 60q66 0 131 -90l188 -261h-26l-217 146q-140 94 -140 145z" />
<glyph unicode="a" horiz-adv-x="811" d="M74 272q0 108 112 159q38 17 157 55q98 31 155 65v162q0 90 -35 131q-50 59 -115 59q-42 0 -83 -28q-44 -32 -44 -72q0 -16 10 -39l-139 -68q-6 20 -6 29q0 45 65 111q51 51 105 84q71 43 133 43q137 0 215 -109q31 -43 31 -176v-275q0 -174 22 -191q10 -9 31 -9 q47 0 100 45l11 -31q-139 -113 -203 -113q-86 0 -94 125q-153 -125 -238 -125q-83 0 -134 42q-56 45 -56 126zM205 297q0 -51 35 -86t86 -35q44 0 172 90v244q-39 -23 -121 -57q-94 -39 -115 -53q-57 -39 -57 -103z" />
<glyph unicode="b" horiz-adv-x="1024" d="M12 1386v35l246 84h33v-686q199 144 309 144q138 0 237 -117.5t99 -278.5q0 -196 -136 -328q-139 -135 -343 -135q-75 0 -178 17q-49 8 -125 22v1110q0 98 -26 112q-15 7 -58 13zM291 379q0 -98 62.5 -156.5t160.5 -58.5q137 0 215 108q70 96 70 238q0 212 -137 312 q-64 46 -142 46q-95 0 -229 -96v-393z" />
<glyph unicode="c" horiz-adv-x="874" d="M94 500q0 266 236 401q108 62 235 62q133 0 200 -57q30 -27 30 -60q0 -62 -60 -62q-45 0 -108 59q-71 66 -131 66q-149 0 -228 -185q-37 -85 -37 -179q0 -212 142 -310q66 -47 147 -47q144 0 250 148l31 -19q-134 -213 -363 -213q-221 0 -307 216q-37 92 -37 180z" />
<glyph unicode="d" horiz-adv-x="1024" d="M88 500q0 267 220 401q103 62 224 62q105 0 201 -39v397q0 34 -24 46q-12 6 -56 11l-67 8v35l284 84v-1202q0 -75 60 -75q18 0 41 7l49 15v-43l-262 -103h-25v146q-202 -146 -317 -146q-190 0 -284 198q-44 90 -44 198zM225 569q0 -134 65 -246q77 -131 202 -131 q96 0 241 103v459q-105 153 -244 153q-161 0 -231 -166q-33 -78 -33 -172z" />
<glyph unicode="e" horiz-adv-x="897" d="M98 524q0 245 186 376q89 63 210 63q173 0 241 -98q27 -62 96 -169v-47h-598q-8 -62 -8 -86q0 -210 159 -310q72 -46 153 -46q147 0 260 133l22 -25q-167 -211 -364 -211q-208 0 -309 207q-48 96 -48 213zM240 702h419q-21 135 -111 194q-44 28 -91 28q-162 0 -217 -222z " />
<glyph unicode="f" horiz-adv-x="555" d="M33 850v35q84 18 151 55q0 133 34 229q37 104 124 191q145 145 291 145q108 0 181 -57q30 -24 30 -39t-22 -56.5t-34 -41.5q-6 0 -77 49q-76 51 -162 51q-227 0 -227 -315v-156h206l15 -90h-221v-561q0 -74 40 -100q31 -21 111 -21h78v-39h-506v39q111 0 129 52 q10 28 10 89v541h-151z" />
<glyph unicode="g" horiz-adv-x="961" d="M72 -154q0 53 37 94q16 18 82.5 68t99.5 90q-67 7 -125 43q-70 43 -70 103q0 59 82 92q47 18 127 59q-196 79 -196 254q0 100 63 180q59 75 156 110q65 24 141 24q144 0 229 -82q84 0 188 11q37 4 81 9v-129q-113 7 -205 25q35 -67 35 -131q0 -171 -168 -256 q-81 -41 -191 -41q-45 0 -94 16q-7 -8 -74 -47q-51 -31 -51 -57q0 -71 293 -74q152 -1 195 -6q125 -15 178 -68q61 -61 61 -143q0 -118 -141 -222q-158 -116 -418 -116q-115 0 -201 40q-114 52 -114 154zM199 -86q0 -108 153 -175q69 -30 150 -30q184 0 290 124 q48 57 48 120q0 108 -138 121q-25 2 -61 4l-228 8q-75 3 -81 4q-42 -35 -115 -114q-18 -25 -18 -62zM246 690q0 -156 96 -239q49 -43 121 -43q96 0 149 74q47 65 47 165q0 114 -49 189q-57 88 -166 88q-99 0 -151 -70q-47 -62 -47 -164z" />
<glyph unicode="h" d="M51 129v39q83 4 112 40q27 32 27 118v981q0 60 -51 67l-88 12v35l244 84h33v-671q219 129 338 129q227 0 227 -306q0 -228 -10 -411q2 -56 61 -70q31 -8 94 -8v-39h-442v39q82 0 114 33q29 30 37.5 114t8.5 316q0 248 -187 248q-89 0 -241 -97v-491q0 -74 30 -99 q27 -24 103 -24v-39h-410z" />
<glyph unicode="i" horiz-adv-x="532" d="M37 129v39q88 0 127 30q43 34 43 119v412q0 74 -23 87q-13 7 -41 13l-96 19v33l266 92h31v-688q0 -117 148 -117v-39h-455zM172 1356q0 34 27 56t61 22q36 0 63 -21.5t27 -56.5t-27 -56.5t-63 -21.5q-34 0 -61 22t-27 56z" />
<glyph unicode="j" horiz-adv-x="512" d="M-215 -242q0 30 15 60q19 35 46 35q29 0 101 -61.5t123 -61.5q137 0 137 223v794q0 45 -12.5 60.5t-55.5 23.5l-92 17v33l268 92h29v-881q0 -205 -96.5 -322.5t-243.5 -117.5q-68 0 -132 22q-87 29 -87 84zM168 1356q0 34 27 56t61 22q36 0 63 -21.5t27 -56.5t-27 -56.5 t-63 -21.5q-34 0 -61 22t-27 56z" />
<glyph unicode="k" horiz-adv-x="1024" d="M45 129v39q143 0 143 137v989q0 42 -9 57q-12 18 -50 23l-84 12v35l250 84h31v-889l295 211q31 22 31 40q0 6 -4 12q-14 22 -70 22h-35v39h405v-39q-97 -4 -168 -37q-48 -21 -147 -92l-189 -135l328 -334q68 -69 108 -95q62 -39 136 -40v-39h-441v39q93 0 93 37 q0 21 -31 53l-311 324v-314q0 -59 30 -81q26 -19 88 -19h21v-39h-420z" />
<glyph unicode="l" horiz-adv-x="492" d="M12 129v39q87 0 124 25q46 31 46 112v989q0 45 -10 59q-12 19 -53 23l-92 10v35l262 84h30v-1214q0 -123 119 -123h35v-39h-461z" />
<glyph unicode="m" horiz-adv-x="1622" d="M43 129v39q84 0 116 38q29 34 29 120v401q0 51 -7 69q-11 29 -52 35l-80 11v35l246 86h31v-164q233 164 364 164q75 0 127.5 -45t67.5 -119q84 54 126 77q73 42 134 65q57 22 102 22q205 0 205 -310q0 -83 -3 -215.5t-3 -182.5q0 -87 108 -87h66v-39h-461v39h19 q75 0 104 29q33 33 33 290v160q0 234 -154 234q-98 0 -272 -115v-471q0 -76 25.5 -101.5t101.5 -25.5v-39h-420v39q113 0 141 66q15 35 15 92v378q0 76 -37 124q-41 53 -115 53q-94 0 -274 -119v-467q0 -101 53 -117q29 -10 90 -10v-39h-426z" />
<glyph unicode="n" d="M53 129v39q137 0 137 129v430q0 53 -7 68q-10 23 -54 32l-70 15v32l236 86h33v-159q149 93 168 103q110 59 184 59q219 0 219 -308q0 -177 -11 -333q-5 -62 -5 -76q0 -78 114 -78h45v-39h-440v39q81 3 117 39q43 43 43 461q0 148 -81 194q-38 21 -81 21q-82 0 -272 -131 v-445q0 -107 52 -127q29 -12 85 -12v-39h-412z" />
<glyph unicode="o" d="M92 528q0 199 139 321q129 114 304 114q189 0 313 -122q127 -125 127 -309q0 -179 -125 -302q-128 -126 -309 -126q-261 0 -389 208q-60 96 -60 216zM246 598q0 -257 158 -384q73 -60 159 -60q141 0 220 155q38 74 38 172q0 177 -91.5 304.5t-223.5 127.5 q-101 0 -180.5 -92t-79.5 -223z" />
<glyph unicode="p" horiz-adv-x="1024" d="M12 -309h21q81 0 110 35q27 32 27 116v903q0 54 -57 68l-66 16v39l219 135h41v-196q197 149 318 149q168 0 261 -195q42 -88 42 -186q0 -120 -58.5 -226t-159.5 -170t-216 -64q-77 0 -187 41v-332q0 -133 137 -133h52v-39h-484v39zM307 289q124 -111 242 -111 q143 0 211 151q31 70 31 154q0 243 -147 335q-62 38 -122 38q-98 0 -215 -100v-467z" />
<glyph unicode="q" horiz-adv-x="1024" d="M94 514q0 259 214 389q99 60 218 60q121 0 258 -70q34 45 68 65h35q-13 -58 -13 -104v-1038q0 -125 119 -125h23v-39h-496v39h80q82 0 111 38q26 34 26 119v408q-163 -143 -309 -143q-155 0 -249 126q-85 115 -85 275zM231 567q0 -140 70 -246q80 -122 213 -122 q119 0 223 104v365q0 147 -113 213q-53 30 -118 30q-138 0 -212 -109q-63 -93 -63 -235z" />
<glyph unicode="r" horiz-adv-x="682" d="M53 129v39q78 1 109 39q28 34 28 115v473l-137 49v35l234 81h41l4 -217q58 95 62 101q46 70 74 90q24 16 58 16q25 0 70 -18l106 -31l-49 -123q-49 7 -108 33q-45 20 -72 20q-42 0 -80 -53q-47 -65 -65 -102v-397q0 -67 34 -91q28 -20 99 -20h78v-39h-486z" />
<glyph unicode="s" horiz-adv-x="618" d="M66 336h32q18 -81 64 -133q54 -60 131 -60q84 0 126 68q19 32 19 68q0 60 -65 124q-38 38 -139 107q-94 64 -131 105.5t-37 117.5q0 107 79 171q74 59 183 59q78 0 164 -33l4 -187h-35q-15 105 -87 149q-35 21 -77 21q-51 0 -88 -32t-37 -82q0 -63 64 -119 q20 -17 117 -79t137 -107q63 -70 63 -156q0 -103 -74.5 -168.5t-179.5 -65.5q-49 0 -90 15q-46 12 -55 12q-20 0 -35 -25h-31z" />
<glyph unicode="t" horiz-adv-x="598" d="M59 850v33q80 39 142 143q30 51 55 117h35v-203h293l-33 -90h-260v-477q0 -64 34 -114q40 -58 101 -58q67 0 125 102l33 -31q-77 -168 -224 -168q-94 0 -152 73q-54 68 -54 165v508h-95z" />
<glyph unicode="u" d="M51 872v31l264 57v-573q0 -83 51 -133.5t134 -50.5q107 0 243 112v441q0 56 -11 75q-14 24 -64 33l-103 19v28l316 49v-690q0 -54 36 -58q17 -3 58 5l43 8v-37l-275 -84v164q-228 -164 -348 -164q-91 0 -154 59t-63 150v455q0 69 -55 84z" />
<glyph unicode="v" horiz-adv-x="981" d="M14 903v37h418v-37q-99 -3 -124 -24q-10 -8 -10 -26q0 -24 19 -67l218 -510l208 474q16 36 16 64q0 25 -13 43q-27 39 -134 46v37h357v-37q-104 -18 -162 -149l-283 -643h-59l-297 680q-41 94 -90 102z" />
<glyph unicode="w" horiz-adv-x="1516" d="M16 903v37h398v-37q-110 -6 -110 -56q0 -28 24 -81l221 -494l201 475q-58 138 -152 150l-49 6v37h424v-37q-78 -2 -98 -31q-8 -12 -8 -31q0 -28 18 -73l200 -487l197 479q18 45 18 75q0 23 -11 37q-28 31 -126 31v37h344v-37q-78 -8 -123 -65q-25 -32 -45 -82l-264 -645 h-55l-244 577l-246 -577h-57l-305 688q-41 92 -152 104z" />
<glyph unicode="x" horiz-adv-x="1004" d="M16 129v41q74 0 118 25q36 19 91 81l219 246l-198 260q-88 116 -215 121v37h413v-37q-69 0 -83 -19q-5 -8 -5 -17q0 -20 21 -48l153 -203l134 150q38 43 38 75q0 62 -106 62v37h395v-37l-59 -6q-101 -10 -201 -121l-174 -192l246 -308q44 -55 86 -82q36 -24 102 -24v-41 h-409v41q76 0 94 19q5 6 5 15q0 19 -26 52l-182 233l-180 -202q-26 -30 -26 -54q0 -63 130 -63v-41h-381z" />
<glyph unicode="y" horiz-adv-x="961" d="M-10 903v37h411v-37q-90 -1 -109 -29q-8 -11 -8 -29q0 -26 19 -67l232 -499l174 434q29 72 29 113q0 23 -8 36q-24 38 -120 41v37h340v-37q-78 -8 -126 -79q-24 -36 -44 -85l-348 -868q-88 -219 -180 -219q-33 0 -57 19q-27 20 -27 52q0 37 33 56q13 8 66 24t71 35 q40 41 70 117l61 154l-317 673q-30 65 -61 89q-36 31 -101 32z" />
<glyph unicode="z" horiz-adv-x="831" d="M63 129v39l519 698h-346q-36 0 -56 -41q-13 -27 -53 -155h-39l64 325h34q0 -38 32 -49q16 -6 65 -6h487v-37l-516 -700h375q55 0 92 50q20 27 49 99h37l-84 -223h-660z" />
<glyph unicode="{" horiz-adv-x="981" d="M211 561v35q136 25 198 115q29 41 29 90q0 47 -24 147q-23 96 -23 172q0 149 115 262q111 109 262 123v-37q-142 -14 -203 -130q-28 -53 -28 -107q0 -57 19 -162.5t19 -159.5q0 -139 -132 -248q-65 -53 -152 -83q175 -56 250 -199q34 -65 34 -131q0 -54 -19 -160.5 t-19 -161.5q0 -96 67 -162t164 -75v-37q-151 14 -262 123q-115 113 -115 262q0 76 23 172q24 100 24 147q0 82 -75 140q-63 49 -152 65z" />
<glyph unicode="|" horiz-adv-x="1044" d="M479 -348v1782h88v-1782h-88z" />
<glyph unicode="}" horiz-adv-x="981" d="M213 -311q140 14 203 130q28 52 28 107q0 54 -19 160.5t-19 161.5q0 114 88 209q81 85 196 125q-175 52 -250 198q-34 65 -34 129q0 55 19 161.5t19 160.5q0 120 -107 195q-52 35 -124 42v37q115 -10 209.5 -78.5t139.5 -173.5q28 -66 28 -133q0 -55 -23.5 -160 t-23.5 -159q0 -81 76 -139q63 -49 151 -66v-35q-88 -16 -151 -65q-76 -59 -76 -140q0 -58 22 -147q25 -101 25 -172q0 -195 -183 -318q-86 -57 -194 -67v37z" />
<glyph unicode="~" horiz-adv-x="1110" d="M14 616q3 137 64 216q69 90 201 90q80 0 296 -91q223 -94 295 -94q151 0 168 185h58q-12 -306 -265 -306q-97 0 -306 90.5t-281 90.5q-139 0 -172 -181h-58z" />
<glyph unicode="&#xa1;" horiz-adv-x="569" d="M197 138q0 63 33 251.5t34 317.5l1 117h41l1 -115q1 -128 35 -318q33 -186 33 -255q0 -154 -88 -154q-90 0 -90 156zM201 986q1 36 26.5 61t61.5 25q37 0 63.5 -25.5t26.5 -60.5q0 -38 -26.5 -65t-63.5 -27t-63 27t-25 65z" />
<glyph unicode="&#xa2;" horiz-adv-x="874" d="M94 500q0 131 69.5 242t187.5 171q99 50 214 50q26 0 53 -3l107 261h66l-111 -275q115 -34 115 -100q0 -62 -60 -62q-49 0 -102 50l-244 -613q76 -33 133 -33q136 0 250 148l29 -19q-108 -170 -270 -204q-38 -9 -79 -9q-50 0 -104 13l-135 -332h-66l144 352 q-197 113 -197 363zM231 545q0 -164 107 -283l248 612q-53 35 -90 35q-149 0 -228 -185q-37 -85 -37 -179z" />
<glyph unicode="&#xa3;" horiz-adv-x="1556" d="M29 -270q0 62 92 136q75 59 149 87q60 103 136 307h-302l11 49h311l160 414q161 417 350 606q107 107 216 137q56 15 114 15q137 0 209 -73q32 -34 32 -73q0 -63 -65 -63q-32 0 -88 48q-41 37 -82 73q-24 18 -84 18q-76 0 -150.5 -74.5t-230.5 -456.5 q-110 -269 -119 -289q-70 -164 -133 -282h352l-10 -49h-365q-69 -148 -174 -276l4 -5q103 56 224 56q142 0 325 -134q89 -65 119 -82q71 -40 137 -40q72 0 125 39q60 43 60 112q0 34 -29 85t-29 65q0 31 20.5 53.5t51.5 22.5q46 0 70 -48q20 -38 20 -88q0 -90 -58 -173 q-54 -75 -139 -121q-88 -48 -184 -48q-145 0 -319 147q-86 72 -125 96q-75 46 -148 46q-69 0 -166 -47q-40 -82 -94 -147q-75 -90 -139 -90q-19 0 -37 14t-18 33z" />
<glyph unicode="&#xa4;" horiz-adv-x="1366" d="M215 379l125 123q-100 138 -100 282q0 148 100 283l-125 123l61 63l125 -123q140 99 283 99q144 0 283 -101l125 125l61 -63l-125 -123q100 -134 100 -283q0 -142 -100 -280l125 -125l-61 -62l-125 125q-141 -102 -283 -102q-139 0 -283 100l-125 -123zM328 784 q0 -202 178 -307q81 -49 178 -49q147 0 251.5 105.5t104.5 250.5q0 206 -179 310q-82 47 -177 47q-205 0 -308 -178q-48 -83 -48 -179z" />
<glyph unicode="&#xa5;" horiz-adv-x="1024" d="M-217 1364v39h545v-39q-148 0 -144 -54q2 -29 35 -79l109 -166h420l88 151q31 52 31 85q0 63 -136 63v39h463v-39q-168 -12 -256 -162l-80 -137h227v-68h-268l-190 -321h458v-68h-487v-289q0 -85 40 -119q37 -32 124 -32h26v-39h-563v39h39q86 0 123 30q41 33 41 117v293 h-549v68h504l-207 321h-297v68h254l-70 108q-46 72 -71 101q-48 57 -97 74q-42 14 -112 16zM371 997l176 -272l160 272h-336z" />
<glyph unicode="&#xa6;" horiz-adv-x="1044" d="M479 -348v756h88v-756h-88zM479 678v756h88v-756h-88z" />
<glyph unicode="&#xa7;" horiz-adv-x="961" d="M106 960q0 209 135.5 365t325.5 156q139 0 224 -70q38 -32 38 -63q0 -66 -73 -66q-35 0 -99 63q-77 74 -151 74q-106 0 -161 -83q-26 -38 -26 -83q0 -67 108 -229q76 -105 151 -209q137 -190 191 -304q83 -172 83 -345q0 -220 -157 -359q-148 -131 -310 -131 q-73 0 -151 30q-101 38 -101 99q0 26 20 46t46 20q32 0 85 -46q40 -34 79 -69q28 -20 92 -20q103 0 160 81q26 37 26 79q0 74 -100 226l-148 206q-134 191 -190 298q-97 185 -97 334zM182 981q0 -116 55 -241q31 -70 121 -218q99 -139 283 -427q52 -93 66 -177 q67 100 67 227q0 162 -67 305q-41 89 -166 269l-96 139q-113 164 -161 273q-27 61 -34 106q-68 -111 -68 -256z" />
<glyph unicode="&#xa8;" horiz-adv-x="682" d="M53 1274q0 38 26 64t64 26t64 -26t26 -64t-26 -64t-64 -26t-64 26t-26 64zM451 1274q0 38 26 64t64 26t64 -26t26 -64t-26 -64t-64 -26t-64 26t-26 64z" />
<glyph unicode="&#xa9;" horiz-adv-x="1556" d="M70 807q0 190 94.5 353.5t258.5 259t355 95.5t354.5 -94.5t259 -258.5t95.5 -355t-94.5 -354t-258.5 -259t-356 -96q-190 0 -353 94.5t-259 258.5t-96 356zM131 807q0 -268 189.5 -457.5t457.5 -189.5q175 0 324 85.5t236 235.5t87 326q0 174 -85.5 322.5t-235 236.5 t-326.5 88q-174 0 -323 -86t-236.5 -236t-87.5 -325zM317 801q0 129 65.5 235.5t180 167t252.5 60.5q78 0 171 -32q37 -13 54 -13q34 0 47 45h39l21 -281h-39q-70 238 -303 238q-201 0 -282 -184q-40 -89 -40 -206q0 -183 73 -289q85 -124 259 -124q197 0 311 162l39 -19 q-141 -203 -385 -203q-271 0 -402 219q-61 101 -61 224z" />
<glyph unicode="&#xaa;" horiz-adv-x="532" d="M43 1022q0 54 53 85q23 13 103.5 37.5t113.5 43.5v112q0 35 -24.5 60.5t-59.5 25.5q-30 0 -54 -23q-13 -14 -13 -29q0 -12 8 -25l-111 -50q-8 11 -8 24q0 20 17 45q29 41 84.5 73.5t103.5 32.5q94 0 145 -62q25 -31 25 -67v-263q0 -55 23 -55q36 0 69 35l12 -35 q-87 -72 -143 -72t-70 64q-85 -64 -145 -64q-53 0 -89 26q-40 30 -40 81zM152 1036q0 -65 63 -65q21 0 98 47v129q-57 -19 -143 -64q-18 -16 -18 -47z" />
<glyph unicode="&#xab;" horiz-adv-x="834" d="M84 410l340 393h47l-246 -393l246 -400h-49zM385 410l340 393h47l-246 -393l252 -400h-53z" />
<glyph unicode="&#xac;" horiz-adv-x="1366" d="M145 985v90h1076v-577h-93v487h-983z" />
<glyph unicode="&#xad;" horiz-adv-x="1366" d="M145 739v90h1076v-90h-1076z" />
<glyph unicode="&#xae;" horiz-adv-x="1556" d="M70 807q0 190 94.5 353.5t258.5 259t355 95.5t354.5 -94.5t259 -258.5t95.5 -355t-94.5 -354t-258.5 -259t-356 -96q-190 0 -353 94.5t-259 258.5t-96 356zM131 807q0 -268 189.5 -457.5t457.5 -189.5q175 0 324 85.5t236 235.5t87 326q0 174 -85.5 322.5t-235 236.5 t-326.5 88q-174 0 -323 -86t-236.5 -236t-87.5 -325zM373 377v33q73 0 94 39q10 20 10 49v622q0 86 -92 86v37h385q184 0 262 -107q37 -51 37 -118q0 -166 -223 -221l209 -299q58 -83 121 -88v-33h-185l-295 405h-73v-295q0 -77 116 -77v-33h-366zM623 825h39q100 0 166 41 q79 48 79 142q0 84 -59 137t-143 53q-34 0 -82 -14v-359z" />
<glyph unicode="&#xaf;" horiz-adv-x="682" d="M59 1216v119h564v-119h-564z" />
<glyph unicode="&#xb0;" horiz-adv-x="811" d="M98 1130q0 176 154 267q71 41 154 41q127 0 217 -90t90 -218q0 -176 -152 -265q-71 -42 -155 -42q-128 0 -218 89.5t-90 217.5zM182 1130q0 -93 65.5 -158t158.5 -65q128 0 193 112q30 51 30 111q0 129 -111 194q-51 30 -112 30q-94 0 -159 -65.5t-65 -158.5z" />
<glyph unicode="&#xb1;" horiz-adv-x="946" d="M105 175v83h730v-83h-730zM105 581v83h325v328h84v-328h321v-83h-321v-253h-84v253h-325z" />
<glyph unicode="&#xb2;" horiz-adv-x="618" d="M47 756v24q29 29 176 159q112 99 164 165q45 57 45 125q0 59 -43.5 96t-103.5 37q-135 0 -181 -141h-43q12 99 85 157q69 56 171 56q93 0 161 -48q75 -53 75 -143q0 -104 -112 -187l-133 -98q-79 -59 -146 -129h280q51 0 68 17t25 69h43l-25 -159h-506z" />
<glyph unicode="&#xb3;" horiz-adv-x="618" d="M66 821q0 43 49 43q32 0 88.5 -41t97.5 -41q69 0 117 58q45 54 45 125q0 55 -32 96q-35 43 -89 43q-41 0 -86 -35l-25 29q170 111 170 180q0 40 -34 66q-30 24 -72 24q-97 0 -156 -106l-41 14q45 100 142 139q47 19 96 19q64 0 113 -29q57 -34 57 -94q0 -75 -111 -144 q114 -8 161 -89q22 -39 22 -87q0 -140 -163 -215q-74 -35 -157 -35q-54 0 -112 17q-80 22 -80 63z" />
<glyph unicode="&#xb4;" horiz-adv-x="682" d="M143 1128l189 261q65 90 131 90q63 0 63 -60q0 -51 -139 -145l-217 -146h-27z" />
<glyph unicode="&#xb5;" horiz-adv-x="1024" d="M55 -205q0 49 21 137q30 126 33 139q8 47 8 132v737h137v-442q0 -160 35 -220q38 -65 131 -65q142 0 266 143v584h137v-616q0 -115 70 -115q62 0 80 123h43q-4 -92 -43 -155q-48 -77 -133 -77q-89 0 -132 89q-21 43 -22 102q-191 -191 -340 -191q-91 0 -156 86 q-3 -31 -3 -59q0 -32 4 -60q2 -15 28 -136q17 -84 17 -136q0 -42 -26 -75t-67 -33q-88 0 -88 108z" />
<glyph unicode="&#xb6;" horiz-adv-x="918" d="M-14 1026q0 240 209 332q102 45 241 45h494v-55h-131v-1696h-74v1696h-186v-1696h-74v995q-322 0 -428 179q-51 85 -51 200z" />
<glyph unicode="&#xb7;" horiz-adv-x="532" d="M162 791q0 96 104 96q105 0 105 -96q0 -44 -30 -70.5t-75 -26.5q-44 0 -74 27t-30 70z" />
<glyph unicode="&#xb8;" horiz-adv-x="682" d="M209 -125l160 264h30l-65 -110q11 2 21 2q75 0 116 -75q21 -38 21 -79q0 -73 -51 -124.5t-124 -51.5q-38 0 -88 16l15 29q27 -8 53 -8q44 0 76.5 30t32.5 74q0 74 -66 74q-47 0 -131 -41z" />
<glyph unicode="&#xb9;" horiz-adv-x="618" d="M109 1274q129 74 204 160h62v-611q0 -35 39 -35h73v-32h-327v32h84q26 0 26 33v504q-82 -53 -143 -78z" />
<glyph unicode="&#xba;" horiz-adv-x="705" d="M53 1176q0 136 137 218q66 40 158 40q152 0 231 -96q64 -78 64 -162q0 -142 -142 -223q-67 -38 -153 -38q-152 0 -231 101q-64 82 -64 160zM178 1214q0 -93 48 -169q55 -87 143 -87q72 0 115 59q38 53 38 128q0 139 -95 213q-44 33 -95 33q-69 0 -113 -55 q-41 -51 -41 -122z" />
<glyph unicode="&#xbb;" horiz-adv-x="834" d="M66 803h45l348 -404l-336 -389h-49l243 389zM367 803h45l350 -404l-338 -389h-49l246 389z" />
<glyph unicode="&#xbc;" horiz-adv-x="1473" d="M109 1274q129 74 204 160h62v-611q0 -35 39 -35h73v-32h-327v32h84q26 0 26 33v504q-82 -53 -143 -78zM156 74l995 1394h84l-995 -1394h-84zM748 319v31l360 457h53v-424h121v-64h-121v-204h-104v204h-309zM834 383h223l-4 287z" />
<glyph unicode="&#xbd;" horiz-adv-x="1473" d="M109 1274q129 74 204 160h62v-611q0 -35 39 -35h73v-32h-327v32h84q26 0 26 33v504q-82 -53 -143 -78zM156 74l995 1394h84l-995 -1394h-84zM827 129v25q95 85 282 258q103 98 103 190q0 59 -43.5 96t-103.5 37q-63 0 -112.5 -39.5t-67.5 -101.5h-43q11 99 84 157 q70 56 172 56q93 0 160 -48q75 -54 75 -143q0 -82 -65 -148q-23 -23 -134 -102q-115 -82 -192 -163h281q63 0 79 31q9 18 13 55h43l-25 -160h-506z" />
<glyph unicode="&#xbe;" horiz-adv-x="1473" d="M55 821q0 43 49 43q33 0 89.5 -41t97.5 -41q69 0 117 58q45 54 45 125q0 55 -32 96q-35 43 -89 43q-41 0 -86 -35l-25 29q170 111 170 180q0 40 -34 66q-30 24 -72 24q-95 0 -156 -106l-41 14q45 100 142 139q47 19 96 19q64 0 113 -29q57 -34 57 -94q0 -75 -111 -144 q80 -6 129 -50q53 -48 53 -126q0 -141 -162 -216q-74 -34 -157 -34q-54 0 -112 16q-81 23 -81 64zM190 74l996 1394h84l-996 -1394h-84zM782 319v31l361 457h53v-424h121v-64h-121v-204h-104v204h-310zM868 383h224v287h-5z" />
<glyph unicode="&#xbf;" horiz-adv-x="725" d="M88 14q0 227 173 307q59 26 117 52q79 42 79 84q0 69 -78 147h45q100 -102 100 -211q0 -79 -59 -124q-32 -25 -131 -62.5t-140 -74.5q-57 -53 -57 -142q0 -90 61 -138q56 -45 148 -45q27 0 79.5 7.5t78.5 7.5q117 0 117 -74q0 -96 -179 -96q-207 0 -306 171 q-48 82 -48 191zM303 877q0 96 105 96q104 0 104 -96q0 -44 -30 -70.5t-74 -26.5t-74.5 26.5t-30.5 70.5z" />
<glyph unicode="&#xc0;" horiz-adv-x="1386" d="M8 129v39q125 4 162 67q24 41 59 136l373 1018l-18 45h178l428 -1137q38 -100 100 -119q32 -10 86 -10v-39h-563v39h53q74 0 100 6q60 14 60 64q0 25 -22 84l-138 372h-424l-118 -321q-41 -112 -41 -129q0 -76 166 -76h32v-39h-473zM477 784h354l-180 478zM495 1855 q0 60 64 60q66 0 131 -90l188 -261h-26l-217 146q-140 94 -140 145z" />
<glyph unicode="&#xc1;" horiz-adv-x="1386" d="M659 1556l189 261q65 90 131 90q63 0 63 -60q0 -51 -139 -145l-217 -146h-27zM8 129v39q125 4 162 67q24 41 59 136l373 1018l-18 45h178l428 -1137q38 -100 100 -119q32 -10 86 -10v-39h-563v39h53q74 0 100 6q60 14 60 64q0 25 -22 84l-138 372h-424l-118 -321 q-41 -112 -41 -129q0 -76 166 -76h32v-39h-473zM477 784h354l-180 478z" />
<glyph unicode="&#xc2;" horiz-adv-x="1386" d="M425 1556v35l221 369h58l217 -369v-35l-254 256zM8 129v39q125 4 162 67q24 41 59 136l373 1018l-18 45h178l428 -1137q38 -100 100 -119q32 -10 86 -10v-39h-563v39h53q74 0 100 6q60 14 60 64q0 25 -22 84l-138 372h-424l-118 -321q-41 -112 -41 -129q0 -76 166 -76h32 v-39h-473zM477 784h354l-180 478z" />
<glyph unicode="&#xc3;" horiz-adv-x="1386" d="M132 1556q3 137 64 216q69 90 201 90q80 0 296 -91q223 -94 295 -94q151 0 168 185h58q-12 -306 -265 -306q-97 0 -306 90.5t-281 90.5q-139 0 -172 -181h-58zM8 129v39q125 4 162 67q24 41 59 136l373 1018l-18 45h178l428 -1137q38 -100 100 -119q32 -10 86 -10v-39 h-563v39h53q74 0 100 6q60 14 60 64q0 25 -22 84l-138 372h-424l-118 -321q-41 -112 -41 -129q0 -76 166 -76h32v-39h-473zM477 784h354l-180 478z" />
<glyph unicode="&#xc4;" horiz-adv-x="1386" d="M384 1646q0 38 26 64t64 26t64 -26t26 -64t-26 -64t-64 -26t-64 26t-26 64zM782 1646q0 38 26 64t64 26t64 -26t26 -64t-26 -64t-64 -26t-64 26t-26 64zM8 129v39q125 4 162 67q24 41 59 136l373 1018l-18 45h178l428 -1137q38 -100 100 -119q32 -10 86 -10v-39h-563v39 h53q74 0 100 6q60 14 60 64q0 25 -22 84l-138 372h-424l-118 -321q-41 -112 -41 -129q0 -76 166 -76h32v-39h-473zM477 784h354l-180 478z" />
<glyph unicode="&#xc5;" horiz-adv-x="1386" d="M366 1720q0 176 154 267q71 41 154 41q127 0 217 -90t90 -218q0 -176 -152 -265q-71 -42 -155 -42q-128 0 -218 89.5t-90 217.5zM450 1720q0 -93 65.5 -158t158.5 -65q128 0 193 112q30 51 30 111q0 129 -111 194q-51 30 -112 30q-94 0 -159 -65.5t-65 -158.5zM8 129v39 q125 4 162 67q24 41 59 136l373 1018l-18 45h178l428 -1137q38 -100 100 -119q32 -10 86 -10v-39h-563v39h53q74 0 100 6q60 14 60 64q0 25 -22 84l-138 372h-424l-118 -321q-41 -112 -41 -129q0 -76 166 -76h32v-39h-473zM477 784h354l-180 478z" />
<glyph unicode="&#xc7;" horiz-adv-x="1493" d="M646 -153l160 264h30l-65 -110q11 2 21 2q75 0 116 -75q21 -38 21 -79q0 -73 -51 -124.5t-124 -51.5q-38 0 -88 16l15 29q27 -8 53 -8q44 0 76.5 30t32.5 74q0 74 -66 74q-47 0 -131 -41zM106 750q0 194 93.5 350.5t263.5 245t379 88.5q172 0 338 -57q72 -25 94 -25 q29 0 37 12h30l19 -297h-39q-73 199 -263 277q-95 38 -204 38q-344 0 -487 -284q-68 -134 -68 -307q0 -272 172 -459q169 -185 406 -185q330 0 499 304h39q-34 -111 -81 -207q-29 -57 -50 -92q-21 3 -42 3q-17 0 -34 -2q-83 -18 -249 -48q-63 -9 -138 -9q-195 0 -355 77 q-171 83 -268 241q-92 150 -92 336z" />
<glyph unicode="&#xc8;" horiz-adv-x="1217" d="M169 1847q0 60 64 60q66 0 131 -90l188 -261h-26l-217 146q-140 94 -140 145zM6 129v39h57q151 0 179 68q14 35 14 100v864q0 117 -60 147q-35 17 -104 17h-45v39h983l17 -285h-37q-31 211 -152 211h-432v-504h367q65 0 93 47q19 32 25 107h39v-389h-39q-10 88 -31 119 q-29 43 -108 43h-346v-437q0 -63 24 -87.5t87 -24.5h315q131 0 183 91q28 49 55 140h36l-32 -305h-1088z" />
<glyph unicode="&#xc9;" horiz-adv-x="1217" d="M525 1556l189 261q65 90 131 90q63 0 63 -60q0 -51 -139 -145l-217 -146h-27zM6 129v39h57q151 0 179 68q14 35 14 100v864q0 117 -60 147q-35 17 -104 17h-45v39h983l17 -285h-37q-31 211 -152 211h-432v-504h367q65 0 93 47q19 32 25 107h39v-389h-39q-10 88 -31 119 q-29 43 -108 43h-346v-437q0 -63 24 -87.5t87 -24.5h315q131 0 183 91q28 49 55 140h36l-32 -305h-1088z" />
<glyph unicode="&#xca;" horiz-adv-x="1217" d="M290 1556v35l221 369h58l217 -369v-35l-254 256zM6 129v39h57q151 0 179 68q14 35 14 100v864q0 117 -60 147q-35 17 -104 17h-45v39h983l17 -285h-37q-31 211 -152 211h-432v-504h367q65 0 93 47q19 32 25 107h39v-389h-39q-10 88 -31 119q-29 43 -108 43h-346v-437 q0 -63 24 -87.5t87 -24.5h315q131 0 183 91q28 49 55 140h36l-32 -305h-1088z" />
<glyph unicode="&#xcb;" horiz-adv-x="1217" d="M249 1646q0 38 26 64t64 26t64 -26t26 -64t-26 -64t-64 -26t-64 26t-26 64zM647 1646q0 38 26 64t64 26t64 -26t26 -64t-26 -64t-64 -26t-64 26t-26 64zM6 129v39h57q151 0 179 68q14 35 14 100v864q0 117 -60 147q-35 17 -104 17h-45v39h983l17 -285h-37 q-31 211 -152 211h-432v-504h367q65 0 93 47q19 32 25 107h39v-389h-39q-10 88 -31 119q-29 43 -108 43h-346v-437q0 -63 24 -87.5t87 -24.5h315q131 0 183 91q28 49 55 140h36l-32 -305h-1088z" />
<glyph unicode="&#xcc;" horiz-adv-x="682" d="M-29 1847q0 60 64 60q66 0 131 -90l188 -261h-26l-217 146q-140 94 -140 145zM92 129v39q96 4 126 42q28 35 28 134v872q0 83 -36 115q-32 28 -118 33v39h498v-39q-129 0 -157 -62q-17 -36 -17 -104v-868q0 -121 67 -147q38 -15 107 -15v-39h-498z" />
<glyph unicode="&#xcd;" horiz-adv-x="682" d="M327 1556l189 261q65 90 131 90q63 0 63 -60q0 -51 -139 -145l-217 -146h-27zM92 129v39q96 4 126 42q28 35 28 134v872q0 83 -36 115q-32 28 -118 33v39h498v-39q-129 0 -157 -62q-17 -36 -17 -104v-868q0 -121 67 -147q38 -15 107 -15v-39h-498z" />
<glyph unicode="&#xce;" horiz-adv-x="682" d="M93 1556v35l221 369h58l217 -369v-35l-254 256zM92 129v39q96 4 126 42q28 35 28 134v872q0 83 -36 115q-32 28 -118 33v39h498v-39q-129 0 -157 -62q-17 -36 -17 -104v-868q0 -121 67 -147q38 -15 107 -15v-39h-498z" />
<glyph unicode="&#xcf;" horiz-adv-x="682" d="M52 1646q0 38 26 64t64 26t64 -26t26 -64t-26 -64t-64 -26t-64 26t-26 64zM450 1646q0 38 26 64t64 26t64 -26t26 -64t-26 -64t-64 -26t-64 26t-26 64zM92 129v39q96 4 126 42q28 35 28 134v872q0 83 -36 115q-32 28 -118 33v39h498v-39q-129 0 -157 -62 q-17 -36 -17 -104v-868q0 -121 67 -147q38 -15 107 -15v-39h-498z" />
<glyph unicode="&#xd1;" horiz-adv-x="1665" d="M307 1556q3 137 64 216q69 90 201 90q80 0 296 -91q223 -94 295 -94q151 0 168 185h58q-12 -306 -265 -306q-97 0 -306 90.5t-281 90.5q-139 0 -172 -181h-58zM61 129v39h9q168 0 168 137v1008q-70 48 -172 51v39h321l965 -1006v815q0 117 -76 138q-43 12 -125 14v39h479 v-39q-93 0 -125 -12q-61 -21 -61 -95v-1142h-53l-1061 1110v-879q0 -141 74 -164q42 -14 133 -14v-39h-476z" />
<glyph unicode="&#xd2;" horiz-adv-x="1686" d="M488 1847q0 60 64 60q66 0 131 -90l188 -261h-26l-217 146q-140 94 -140 145zM109 737q0 198 94.5 358t269.5 250q171 89 385 89q297 0 508 -181t211 -452q0 -305 -212.5 -505t-516.5 -200q-194 0 -359 75q-176 81 -280 233q-100 146 -100 333zM301 801q0 -177 72 -325 q77 -158 220 -245q136 -84 298 -84q314 0 438 301q55 135 55 285q0 285 -162 467t-417 182q-245 0 -383 -193q-121 -170 -121 -388z" />
<glyph unicode="&#xd3;" horiz-adv-x="1686" d="M845 1556l189 261q65 90 131 90q63 0 63 -60q0 -51 -139 -145l-217 -146h-27zM109 737q0 198 94.5 358t269.5 250q171 89 385 89q297 0 508 -181t211 -452q0 -305 -212.5 -505t-516.5 -200q-194 0 -359 75q-176 81 -280 233q-100 146 -100 333zM301 801q0 -177 72 -325 q77 -158 220 -245q136 -84 298 -84q314 0 438 301q55 135 55 285q0 285 -162 467t-417 182q-245 0 -383 -193q-121 -170 -121 -388z" />
<glyph unicode="&#xd4;" horiz-adv-x="1686" d="M610 1556v35l221 369h58l217 -369v-35l-254 256zM109 737q0 198 94.5 358t269.5 250q171 89 385 89q297 0 508 -181t211 -452q0 -305 -212.5 -505t-516.5 -200q-194 0 -359 75q-176 81 -280 233q-100 146 -100 333zM301 801q0 -177 72 -325q77 -158 220 -245 q136 -84 298 -84q314 0 438 301q55 135 55 285q0 285 -162 467t-417 182q-245 0 -383 -193q-121 -170 -121 -388z" />
<glyph unicode="&#xd5;" horiz-adv-x="1686" d="M317 1556q3 137 64 216q69 90 201 90q80 0 296 -91q223 -94 295 -94q151 0 168 185h58q-12 -306 -265 -306q-97 0 -306 90.5t-281 90.5q-139 0 -172 -181h-58zM109 737q0 198 94.5 358t269.5 250q171 89 385 89q297 0 508 -181t211 -452q0 -305 -212.5 -505t-516.5 -200 q-194 0 -359 75q-176 81 -280 233q-100 146 -100 333zM301 801q0 -177 72 -325q77 -158 220 -245q136 -84 298 -84q314 0 438 301q55 135 55 285q0 285 -162 467t-417 182q-245 0 -383 -193q-121 -170 -121 -388z" />
<glyph unicode="&#xd6;" horiz-adv-x="1686" d="M569 1646q0 38 26 64t64 26t64 -26t26 -64t-26 -64t-64 -26t-64 26t-26 64zM967 1646q0 38 26 64t64 26t64 -26t26 -64t-26 -64t-64 -26t-64 26t-26 64zM109 737q0 198 94.5 358t269.5 250q171 89 385 89q297 0 508 -181t211 -452q0 -305 -212.5 -505t-516.5 -200 q-194 0 -359 75q-176 81 -280 233q-100 146 -100 333zM301 801q0 -177 72 -325q77 -158 220 -245q136 -84 298 -84q314 0 438 301q55 135 55 285q0 285 -162 467t-417 182q-245 0 -383 -193q-121 -170 -121 -388z" />
<glyph unicode="&#xd7;" horiz-adv-x="946" d="M131 219l275 278l-275 278l62 56l274 -276l277 276l58 -56l-279 -278l279 -278l-58 -57l-277 275l-277 -275z" />
<glyph unicode="&#xd9;" horiz-adv-x="1622" d="M447 1847q0 60 64 60q66 0 131 -90l188 -261h-26l-217 146q-140 94 -140 145zM37 1364v39h526v-39h-18q-88 0 -125 -32t-37 -118v-569q0 -215 127 -331q122 -111 340 -111q467 0 467 444v477q0 184 -69 217q-40 18 -132 23v39h481v-39q-101 -2 -143.5 -45t-42.5 -143 v-553q0 -171 -86 -297t-242 -185q-117 -45 -278 -45q-283 0 -441 149q-151 140 -151 367v598q0 120 -64 141q-35 11 -112 13z" />
<glyph unicode="&#xda;" horiz-adv-x="1622" d="M803 1556l189 261q65 90 131 90q63 0 63 -60q0 -51 -139 -145l-217 -146h-27zM37 1364v39h526v-39h-18q-88 0 -125 -32t-37 -118v-569q0 -215 127 -331q122 -111 340 -111q467 0 467 444v477q0 184 -69 217q-40 18 -132 23v39h481v-39q-101 -2 -143.5 -45t-42.5 -143 v-553q0 -171 -86 -297t-242 -185q-117 -45 -278 -45q-283 0 -441 149q-151 140 -151 367v598q0 120 -64 141q-35 11 -112 13z" />
<glyph unicode="&#xdb;" horiz-adv-x="1622" d="M569 1556v35l221 369h58l217 -369v-35l-254 256zM37 1364v39h526v-39h-18q-88 0 -125 -32t-37 -118v-569q0 -215 127 -331q122 -111 340 -111q467 0 467 444v477q0 184 -69 217q-40 18 -132 23v39h481v-39q-101 -2 -143.5 -45t-42.5 -143v-553q0 -171 -86 -297t-242 -185 q-117 -45 -278 -45q-283 0 -441 149q-151 140 -151 367v598q0 120 -64 141q-35 11 -112 13z" />
<glyph unicode="&#xdc;" horiz-adv-x="1622" d="M528 1646q0 38 26 64t64 26t64 -26t26 -64t-26 -64t-64 -26t-64 26t-26 64zM926 1646q0 38 26 64t64 26t64 -26t26 -64t-26 -64t-64 -26t-64 26t-26 64zM37 1364v39h526v-39h-18q-88 0 -125 -32t-37 -118v-569q0 -215 127 -331q122 -111 340 -111q467 0 467 444v477 q0 184 -69 217q-40 18 -132 23v39h481v-39q-101 -2 -143.5 -45t-42.5 -143v-553q0 -171 -86 -297t-242 -185q-117 -45 -278 -45q-283 0 -441 149q-151 140 -151 367v598q0 120 -64 141q-35 11 -112 13z" />
<glyph unicode="&#xdd;" horiz-adv-x="1450" d="M688 1556l189 261q65 90 131 90q63 0 63 -60q0 -51 -139 -145l-217 -146h-27zM-4 1364v39h545v-39q-144 0 -144 -51q0 -28 35 -82l328 -506l289 491q31 53 31 86q0 62 -136 62v39h463v-39q-93 -7 -150.5 -43.5t-105.5 -118.5l-340 -575v-308q0 -85 40 -119 q37 -32 124 -32h26v-39h-563v39h39q86 0 123 30q41 33 41 117v289l-365 569q-45 70 -71 101q-49 57 -97 74q-42 14 -112 16z" />
<glyph unicode="&#xe0;" horiz-adv-x="811" d="M74 272q0 108 112 159q38 17 157 55q98 31 155 65v162q0 90 -35 131q-50 59 -115 59q-42 0 -83 -28q-44 -32 -44 -72q0 -16 10 -39l-139 -68q-6 20 -6 29q0 45 65 111q51 51 105 84q71 43 133 43q137 0 215 -109q31 -43 31 -176v-275q0 -174 22 -191q10 -9 31 -9 q47 0 100 45l11 -31q-139 -113 -203 -113q-86 0 -94 125q-153 -125 -238 -125q-83 0 -134 42q-56 45 -56 126zM205 297q0 -51 35 -86t86 -35q44 0 172 90v244q-39 -23 -121 -57q-94 -39 -115 -53q-57 -39 -57 -103zM209 1419q0 60 64 60q66 0 131 -90l188 -261h-26l-217 146 q-140 94 -140 145z" />
<glyph unicode="&#xe1;" horiz-adv-x="811" d="M375 1085l189 261q65 90 131 90q63 0 63 -60q0 -51 -139 -145l-217 -146h-27zM74 272q0 108 112 159q38 17 157 55q98 31 155 65v162q0 90 -35 131q-50 59 -115 59q-42 0 -83 -28q-44 -32 -44 -72q0 -16 10 -39l-139 -68q-6 20 -6 29q0 45 65 111q51 51 105 84 q71 43 133 43q137 0 215 -109q31 -43 31 -176v-275q0 -174 22 -191q10 -9 31 -9q47 0 100 45l11 -31q-139 -113 -203 -113q-86 0 -94 125q-153 -125 -238 -125q-83 0 -134 42q-56 45 -56 126zM205 297q0 -51 35 -86t86 -35q44 0 172 90v244q-39 -23 -121 -57 q-94 -39 -115 -53q-57 -39 -57 -103z" />
<glyph unicode="&#xe2;" horiz-adv-x="811" d="M74 272q0 108 112 159q38 17 157 55q98 31 155 65v162q0 90 -35 131q-50 59 -115 59q-42 0 -83 -28q-44 -32 -44 -72q0 -16 10 -39l-139 -68q-6 20 -6 29q0 45 65 111q51 51 105 84q71 43 133 43q137 0 215 -109q31 -43 31 -176v-275q0 -174 22 -191q10 -9 31 -9 q47 0 100 45l11 -31q-139 -113 -203 -113q-86 0 -94 125q-153 -125 -238 -125q-83 0 -134 42q-56 45 -56 126zM205 297q0 -51 35 -86t86 -35q44 0 172 90v244q-39 -23 -121 -57q-94 -39 -115 -53q-57 -39 -57 -103zM118 1124v35l221 369h58l217 -369v-35l-254 256z" />
<glyph unicode="&#xe3;" horiz-adv-x="811" d="M-152 1085q3 137 64 216q69 90 201 90q80 0 296 -91q223 -94 295 -94q151 0 168 185h58q-12 -306 -265 -306q-97 0 -306 90.5t-281 90.5q-139 0 -172 -181h-58zM74 272q0 108 112 159q38 17 157 55q98 31 155 65v162q0 90 -35 131q-50 59 -115 59q-42 0 -83 -28 q-44 -32 -44 -72q0 -16 10 -39l-139 -68q-6 20 -6 29q0 45 65 111q51 51 105 84q71 43 133 43q137 0 215 -109q31 -43 31 -176v-275q0 -174 22 -191q10 -9 31 -9q47 0 100 45l11 -31q-139 -113 -203 -113q-86 0 -94 125q-153 -125 -238 -125q-83 0 -134 42q-56 45 -56 126z M205 297q0 -51 35 -86t86 -35q44 0 172 90v244q-39 -23 -121 -57q-94 -39 -115 -53q-57 -39 -57 -103z" />
<glyph unicode="&#xe4;" horiz-adv-x="811" d="M100 1175q0 38 26 64t64 26t64 -26t26 -64t-26 -64t-64 -26t-64 26t-26 64zM498 1175q0 38 26 64t64 26t64 -26t26 -64t-26 -64t-64 -26t-64 26t-26 64zM74 272q0 108 112 159q38 17 157 55q98 31 155 65v162q0 90 -35 131q-50 59 -115 59q-42 0 -83 -28q-44 -32 -44 -72 q0 -16 10 -39l-139 -68q-6 20 -6 29q0 45 65 111q51 51 105 84q71 43 133 43q137 0 215 -109q31 -43 31 -176v-275q0 -174 22 -191q10 -9 31 -9q47 0 100 45l11 -31q-139 -113 -203 -113q-86 0 -94 125q-153 -125 -238 -125q-83 0 -134 42q-56 45 -56 126zM205 297 q0 -51 35 -86t86 -35q44 0 172 90v244q-39 -23 -121 -57q-94 -39 -115 -53q-57 -39 -57 -103z" />
<glyph unicode="&#xe5;" horiz-adv-x="811" d="M82 1392q0 176 154 267q71 41 154 41q127 0 217 -90t90 -218q0 -176 -152 -265q-71 -42 -155 -42q-128 0 -218 89.5t-90 217.5zM166 1392q0 -93 65.5 -158t158.5 -65q128 0 193 112q30 51 30 111q0 129 -111 194q-51 30 -112 30q-94 0 -159 -65.5t-65 -158.5zM74 272 q0 108 112 159q38 17 157 55q98 31 155 65v162q0 90 -35 131q-50 59 -115 59q-42 0 -83 -28q-44 -32 -44 -72q0 -16 10 -39l-139 -68q-6 20 -6 29q0 45 65 111q51 51 105 84q71 43 133 43q137 0 215 -109q31 -43 31 -176v-275q0 -174 22 -191q10 -9 31 -9q47 0 100 45 l11 -31q-139 -113 -203 -113q-86 0 -94 125q-153 -125 -238 -125q-83 0 -134 42q-56 45 -56 126zM205 297q0 -51 35 -86t86 -35q44 0 172 90v244q-39 -23 -121 -57q-94 -39 -115 -53q-57 -39 -57 -103z" />
<glyph unicode="&#xe7;" horiz-adv-x="874" d="M94 500q0 266 236 401q108 62 235 62q133 0 200 -57q30 -27 30 -60q0 -62 -60 -62q-45 0 -108 59q-71 66 -131 66q-149 0 -228 -185q-37 -85 -37 -179q0 -212 142 -310q66 -47 147 -47q144 0 250 148l31 -19q-130 -205 -350 -213l-45 -75q12 2 23 2q49 0 87 -40 q47 -48 47 -114q0 -74 -50.5 -125t-123.5 -51q-38 0 -88 16l14 29q28 -8 54 -8q44 0 76 30t32 74q0 74 -65 74q-47 0 -131 -41l139 231q-209 12 -291 219q-35 89 -35 175z" />
<glyph unicode="&#xe8;" horiz-adv-x="897" d="M98 524q0 245 186 376q89 63 210 63q173 0 241 -98q27 -62 96 -169v-47h-598q-8 -62 -8 -86q0 -210 159 -310q72 -46 153 -46q147 0 260 133l22 -25q-167 -211 -364 -211q-208 0 -309 207q-48 96 -48 213zM240 702h419q-21 135 -111 194q-44 28 -91 28q-162 0 -217 -222z M252 1419q0 60 64 60q66 0 131 -90l188 -261h-26l-217 146q-140 94 -140 145z" />
<glyph unicode="&#xe9;" horiz-adv-x="897" d="M98 524q0 245 186 376q89 63 210 63q173 0 241 -98q27 -62 96 -169v-47h-598q-8 -62 -8 -86q0 -210 159 -310q72 -46 153 -46q147 0 260 133l22 -25q-167 -211 -364 -211q-208 0 -309 207q-48 96 -48 213zM240 702h419q-21 135 -111 194q-44 28 -91 28q-162 0 -217 -222z M252 1128l189 261q65 90 131 90q63 0 63 -60q0 -51 -139 -145l-217 -146h-27z" />
<glyph unicode="&#xea;" horiz-adv-x="897" d="M98 524q0 245 186 376q89 63 210 63q173 0 241 -98q27 -62 96 -169v-47h-598q-8 -62 -8 -86q0 -210 159 -310q72 -46 153 -46q147 0 260 133l22 -25q-167 -211 -364 -211q-208 0 -309 207q-48 96 -48 213zM240 702h419q-21 135 -111 194q-44 28 -91 28q-162 0 -217 -222z M232 1124v35l221 369h58l217 -369v-35l-254 256z" />
<glyph unicode="&#xeb;" horiz-adv-x="897" d="M98 524q0 245 186 376q89 63 210 63q173 0 241 -98q27 -62 96 -169v-47h-598q-8 -62 -8 -86q0 -210 159 -310q72 -46 153 -46q147 0 260 133l22 -25q-167 -211 -364 -211q-208 0 -309 207q-48 96 -48 213zM240 702h419q-21 135 -111 194q-44 28 -91 28q-162 0 -217 -222z M162 1274q0 38 26 64t64 26t64 -26t26 -64t-26 -64t-64 -26t-64 26t-26 64zM560 1274q0 38 26 64t64 26t64 -26t26 -64t-26 -64t-64 -26t-64 26t-26 64z" />
<glyph unicode="&#xec;" horiz-adv-x="532" d="M-41 1386q0 60 64 60q66 0 131 -90l188 -261h-26l-217 146q-140 94 -140 145zM37 129v39q88 0 127 30q43 34 43 119v412q0 74 -23 87q-13 7 -41 13l-96 19v33l266 92h31v-688q0 -117 148 -117v-39h-455z" />
<glyph unicode="&#xed;" horiz-adv-x="532" d="M315 1095l189 261q65 90 131 90q63 0 63 -60q0 -51 -139 -145l-217 -146h-27zM37 129v39q88 0 127 30q43 34 43 119v412q0 74 -23 87q-13 7 -41 13l-96 19v33l266 92h31v-688q0 -117 148 -117v-39h-455z" />
<glyph unicode="&#xee;" horiz-adv-x="532" d="M37 129v39q88 0 127 30q43 34 43 119v412q0 74 -23 87q-13 7 -41 13l-96 19v33l266 92h31v-688q0 -117 148 -117v-39h-455zM-13 1124v35l221 369h58l217 -369v-35l-254 256z" />
<glyph unicode="&#xef;" horiz-adv-x="532" d="M37 129v39q88 0 127 30q43 34 43 119v412q0 74 -23 87q-13 7 -41 13l-96 19v33l266 92h31v-688q0 -117 148 -117v-39h-455zM-35 1274q0 38 26 64t64 26t64 -26t26 -64t-26 -64t-64 -26t-64 26t-26 64zM363 1274q0 38 26 64t64 26t64 -26t26 -64t-26 -64t-64 -26t-64 26 t-26 64z" />
<glyph unicode="&#xf1;" d="M6 1085q3 137 64 216q69 90 201 90q80 0 296 -91q223 -94 295 -94q151 0 168 185h58q-12 -306 -265 -306q-97 0 -306 90.5t-281 90.5q-139 0 -172 -181h-58zM53 129v39q137 0 137 129v430q0 53 -7 68q-10 23 -54 32l-70 15v32l236 86h33v-159q149 93 168 103 q110 59 184 59q219 0 219 -308q0 -177 -11 -333q-5 -62 -5 -76q0 -78 114 -78h45v-39h-440v39q81 3 117 39q43 43 43 461q0 148 -81 194q-38 21 -81 21q-82 0 -272 -131v-445q0 -107 52 -127q29 -12 85 -12v-39h-412z" />
<glyph unicode="&#xf2;" d="M165 1376q0 60 64 60q66 0 131 -90l188 -261h-26l-217 146q-140 94 -140 145zM92 528q0 199 139 321q129 114 304 114q189 0 313 -122q127 -125 127 -309q0 -179 -125 -302q-128 -126 -309 -126q-261 0 -389 208q-60 96 -60 216zM246 598q0 -257 158 -384q73 -60 159 -60 q141 0 220 155q38 74 38 172q0 177 -91.5 304.5t-223.5 127.5q-101 0 -180.5 -92t-79.5 -223z" />
<glyph unicode="&#xf3;" d="M521 1085l189 261q65 90 131 90q63 0 63 -60q0 -51 -139 -145l-217 -146h-27zM92 528q0 199 139 321q129 114 304 114q189 0 313 -122q127 -125 127 -309q0 -179 -125 -302q-128 -126 -309 -126q-261 0 -389 208q-60 96 -60 216zM246 598q0 -257 158 -384q73 -60 159 -60 q141 0 220 155q38 74 38 172q0 177 -91.5 304.5t-223.5 127.5q-101 0 -180.5 -92t-79.5 -223z" />
<glyph unicode="&#xf4;" d="M92 528q0 199 139 321q129 114 304 114q189 0 313 -122q127 -125 127 -309q0 -179 -125 -302q-128 -126 -309 -126q-261 0 -389 208q-60 96 -60 216zM246 598q0 -257 158 -384q73 -60 159 -60q141 0 220 155q38 74 38 172q0 177 -91.5 304.5t-223.5 127.5 q-101 0 -180.5 -92t-79.5 -223zM251 1124v35l221 369h58l217 -369v-35l-254 256z" />
<glyph unicode="&#xf5;" d="M-6 1085q3 137 64 216q69 90 201 90q80 0 296 -91q223 -94 295 -94q151 0 168 185h58q-12 -306 -265 -306q-97 0 -306 90.5t-281 90.5q-139 0 -172 -181h-58zM92 528q0 199 139 321q129 114 304 114q189 0 313 -122q127 -125 127 -309q0 -179 -125 -302 q-128 -126 -309 -126q-261 0 -389 208q-60 96 -60 216zM246 598q0 -257 158 -384q73 -60 159 -60q141 0 220 155q38 74 38 172q0 177 -91.5 304.5t-223.5 127.5q-101 0 -180.5 -92t-79.5 -223z" />
<glyph unicode="&#xf6;" d="M246 1175q0 38 26 64t64 26t64 -26t26 -64t-26 -64t-64 -26t-64 26t-26 64zM644 1175q0 38 26 64t64 26t64 -26t26 -64t-26 -64t-64 -26t-64 26t-26 64zM92 528q0 199 139 321q129 114 304 114q189 0 313 -122q127 -125 127 -309q0 -179 -125 -302q-128 -126 -309 -126 q-261 0 -389 208q-60 96 -60 216zM246 598q0 -257 158 -384q73 -60 159 -60q141 0 220 155q38 74 38 172q0 177 -91.5 304.5t-223.5 127.5q-101 0 -180.5 -92t-79.5 -223z" />
<glyph unicode="&#xf7;" horiz-adv-x="946" d="M105 452v83h730v-83h-730zM380 215q0 36 25 60.5t61 24.5q35 0 59 -24.5t24 -60.5t-24 -61t-59 -25t-60.5 25.5t-25.5 60.5zM380 772q0 35 25 59t61 24q35 0 59 -24t24 -59q0 -36 -24 -61.5t-59 -25.5t-60.5 26t-25.5 61z" />
<glyph unicode="&#xf9;" d="M51 872v31l264 57v-573q0 -83 51 -133.5t134 -50.5q107 0 243 112v441q0 56 -11 75q-14 24 -64 33l-103 19v28l316 49v-690q0 -54 36 -58q17 -3 58 5l43 8v-37l-275 -84v164q-228 -164 -348 -164q-91 0 -154 59t-63 150v455q0 69 -55 84zM336 1419q0 60 64 60 q66 0 131 -90l188 -261h-26l-217 146q-140 94 -140 145z" />
<glyph unicode="&#xfa;" d="M585 1085l189 261q65 90 131 90q63 0 63 -60q0 -51 -139 -145l-217 -146h-27zM51 872v31l264 57v-573q0 -83 51 -133.5t134 -50.5q107 0 243 112v441q0 56 -11 75q-14 24 -64 33l-103 19v28l316 49v-690q0 -54 36 -58q17 -3 58 5l43 8v-37l-275 -84v164 q-228 -164 -348 -164q-91 0 -154 59t-63 150v455q0 69 -55 84z" />
<glyph unicode="&#xfb;" d="M51 872v31l264 57v-573q0 -83 51 -133.5t134 -50.5q107 0 243 112v441q0 56 -11 75q-14 24 -64 33l-103 19v28l316 49v-690q0 -54 36 -58q17 -3 58 5l43 8v-37l-275 -84v164q-228 -164 -348 -164q-91 0 -154 59t-63 150v455q0 69 -55 84zM263 1124v35l221 369h58 l217 -369v-35l-254 256z" />
<glyph unicode="&#xfc;" d="M51 872v31l264 57v-573q0 -83 51 -133.5t134 -50.5q107 0 243 112v441q0 56 -11 75q-14 24 -64 33l-103 19v28l316 49v-690q0 -54 36 -58q17 -3 58 5l43 8v-37l-275 -84v164q-228 -164 -348 -164q-91 0 -154 59t-63 150v455q0 69 -55 84zM246 1274q0 38 26 64t64 26 t64 -26t26 -64t-26 -64t-64 -26t-64 26t-26 64zM644 1274q0 38 26 64t64 26t64 -26t26 -64t-26 -64t-64 -26t-64 26t-26 64z" />
<glyph unicode="&#xfd;" horiz-adv-x="961" d="M457 1085l189 261q65 90 131 90q63 0 63 -60q0 -51 -139 -145l-217 -146h-27zM-10 903v37h411v-37q-90 -1 -109 -29q-8 -11 -8 -29q0 -26 19 -67l232 -499l174 434q29 72 29 113q0 23 -8 36q-24 38 -120 41v37h340v-37q-78 -8 -126 -79q-24 -36 -44 -85l-348 -868 q-88 -219 -180 -219q-33 0 -57 19q-27 20 -27 52q0 37 33 56q13 8 66 24t71 35q40 41 70 117l61 154l-317 673q-30 65 -61 89q-36 31 -101 32z" />
<glyph unicode="&#xff;" horiz-adv-x="961" d="M-10 903v37h411v-37q-90 -1 -109 -29q-8 -11 -8 -29q0 -26 19 -67l232 -499l174 434q29 72 29 113q0 23 -8 36q-24 38 -120 41v37h340v-37q-78 -8 -126 -79q-24 -36 -44 -85l-348 -868q-88 -219 -180 -219q-33 0 -57 19q-27 20 -27 52q0 37 33 56q13 8 66 24t71 35 q40 41 70 117l61 154l-317 673q-30 65 -61 89q-36 31 -101 32zM192 1274q0 38 26 64t64 26t64 -26t26 -64t-26 -64t-64 -26t-64 26t-26 64zM590 1274q0 38 26 64t64 26t64 -26t26 -64t-26 -64t-64 -26t-64 26t-26 64z" />
<glyph unicode="&#x131;" horiz-adv-x="532" d="M37 129v39q88 0 127 30q43 34 43 119v412q0 74 -23 87q-13 7 -41 13l-96 19v33l266 92h31v-688q0 -117 148 -117v-39h-455z" />
<glyph unicode="&#x152;" horiz-adv-x="2028" d="M117 758q0 238 157 431q185 228 539 228q18 0 191 -8q130 -6 221 -6h610l16 -285h-36q-14 99 -36 142q-36 69 -116 69h-416v-504h352q66 0 93 46q20 33 26 108h39v-389h-39q-10 88 -31 119q-29 43 -108 43h-332v-549h410q111 0 164 63q38 44 73 168h37l-33 -305h-817 q-6 0 -103 -3q-24 -1 -77 -3l-151 -8q-163 0 -307.5 82.5t-232.5 222.5q-93 147 -93 338zM295 791q0 -165 60 -304q67 -154 193 -240q117 -81 257 -81q152 0 228 108q44 63 44 174v693q0 225 -291 225q-327 0 -439 -279q-52 -130 -52 -296z" />
<glyph unicode="&#x153;" horiz-adv-x="1516" d="M94 537q0 130 74.5 238t195.5 156q80 32 166 32q196 0 293 -152q125 152 299 152q162 0 228 -92q35 -70 102 -175v-47h-555q-1 -21 -1 -41q0 -241 135 -358q66 -58 143 -58q82 0 241 146l21 -23q-194 -211 -353 -211q-144 0 -237 150q-112 -150 -311 -150 q-260 0 -383 213q-58 99 -58 220zM248 586q0 -249 163 -376q71 -56 142 -56q139 0 193 152q26 74 26 177q0 259 -135 376q-64 54 -143 54q-125 0 -206 -152q-40 -74 -40 -175zM901 702h363q0 141 -83 197q-39 25 -89 25q-74 0 -136 -78q-44 -56 -55 -144z" />
<glyph unicode="&#x178;" horiz-adv-x="1450" d="M-4 1364v39h545v-39q-144 0 -144 -51q0 -28 35 -82l328 -506l289 491q31 53 31 86q0 62 -136 62v39h463v-39q-93 -7 -150.5 -43.5t-105.5 -118.5l-340 -575v-308q0 -85 40 -119q37 -32 124 -32h26v-39h-563v39h39q86 0 123 30q41 33 41 117v289l-365 569q-45 70 -71 101 q-49 57 -97 74q-42 14 -112 16zM438 1710q0 38 26 64t64 26t64 -26t26 -64t-26 -64t-64 -26t-64 26t-26 64zM836 1710q0 38 26 64t64 26t64 -26t26 -64t-26 -64t-64 -26t-64 26t-26 64z" />
<glyph unicode="&#x2c6;" horiz-adv-x="682" d="M94 1124v35l221 369h58l217 -369v-35l-254 256z" />
<glyph unicode="&#x2dc;" horiz-adv-x="500" d="M-541 122q3 137 64 216q69 90 201 90q80 0 296 -91q223 -94 295 -94q151 0 168 185h58q-12 -306 -265 -306q-97 0 -306 90.5t-281 90.5q-139 0 -172 -181h-58z" />
<glyph unicode="&#x2000;" horiz-adv-x="1014" />
<glyph unicode="&#x2001;" horiz-adv-x="2028" />
<glyph unicode="&#x2002;" horiz-adv-x="1014" />
<glyph unicode="&#x2003;" horiz-adv-x="2028" />
<glyph unicode="&#x2004;" horiz-adv-x="676" />
<glyph unicode="&#x2005;" horiz-adv-x="507" />
<glyph unicode="&#x2006;" horiz-adv-x="338" />
<glyph unicode="&#x2007;" horiz-adv-x="338" />
<glyph unicode="&#x2008;" horiz-adv-x="253" />
<glyph unicode="&#x2009;" horiz-adv-x="405" />
<glyph unicode="&#x200a;" horiz-adv-x="112" />
<glyph unicode="&#x2010;" horiz-adv-x="946" d="M105 452v83h730v-83h-730z" />
<glyph unicode="&#x2011;" horiz-adv-x="946" d="M105 452v83h730v-83h-730z" />
<glyph unicode="&#x2012;" horiz-adv-x="946" d="M105 452v83h730v-83h-730z" />
<glyph unicode="&#x2013;" horiz-adv-x="1024" d="M-12 594v90h1048v-90h-1048z" />
<glyph unicode="&#x2014;" horiz-adv-x="2048" d="M-12 594v90h2072v-90h-2072z" />
<glyph unicode="&#x2018;" horiz-adv-x="532" d="M139 1180q0 131 110 229q52 47 118 72l14 -37q-158 -93 -158 -205q0 -43 29 -43q8 0 24.5 3t24.5 3q92 0 92 -92q0 -43 -33 -71.5t-77 -28.5q-66 0 -107 53q-37 49 -37 117z" />
<glyph unicode="&#x2019;" horiz-adv-x="532" d="M139 1380q0 44 33 72.5t78 28.5q66 0 106 -54q37 -48 37 -116q0 -100 -67 -184q-63 -79 -160 -117l-14 37q157 91 157 204q0 43 -28 43q-9 0 -25.5 -3t-24.5 -3q-38 0 -65 27t-27 65z" />
<glyph unicode="&#x201a;" horiz-adv-x="532" d="M139 197q0 44 33 72t78 28q66 0 106 -54q37 -48 37 -116q0 -100 -67 -184q-63 -79 -160 -117l-14 37q157 91 157 205q0 43 -28 43q-8 0 -25 -3.5t-25 -3.5q-39 0 -65.5 27t-26.5 66z" />
<glyph unicode="&#x201c;" horiz-adv-x="981" d="M123 1180q0 130 109 229q51 47 118 72l15 -37q-158 -92 -158 -205q0 -43 29 -43q8 0 24.5 3t24.5 3q92 0 92 -92q0 -44 -33 -72t-78 -28q-67 0 -107 53q-36 48 -36 117zM588 1180q0 130 109 229q51 47 118 72l14 -37q-157 -92 -157 -205q0 -43 28 -43q7 1 13 2l12 2 q12 2 25 2q92 0 92 -92q0 -44 -33 -72t-78 -28q-67 0 -107 53q-36 48 -36 117z" />
<glyph unicode="&#x201d;" horiz-adv-x="981" d="M139 1380q0 44 33 72.5t78 28.5q66 0 106 -54q37 -48 37 -116q0 -100 -67 -184q-63 -79 -160 -117l-14 37q157 91 157 204q0 43 -28 43q-9 0 -25.5 -3t-24.5 -3q-38 0 -65 27t-27 65zM604 1380q0 44 33 72.5t78 28.5q66 0 106 -54q37 -48 37 -116q0 -100 -67 -184 q-63 -79 -160 -117l-15 37q158 91 158 204q0 43 -29 43q-9 0 -25.5 -3t-23.5 -3q-38 0 -65 27t-27 65z" />
<glyph unicode="&#x201e;" horiz-adv-x="981" d="M139 197q0 44 33 72t78 28q66 0 106 -54q37 -48 37 -116q0 -100 -67 -184q-63 -79 -160 -117l-14 37q157 91 157 205q0 43 -28 43q-8 0 -25 -3.5t-25 -3.5q-39 0 -65.5 27t-26.5 66zM604 197q0 44 33 72t78 28q66 0 106 -54q37 -48 37 -116q0 -100 -67 -184 q-63 -79 -160 -117l-15 37q158 91 158 205q0 43 -29 43q-8 0 -24.5 -3.5t-24.5 -3.5q-39 0 -65.5 27t-26.5 66z" />
<glyph unicode="&#x2022;" horiz-adv-x="725" d="M113 768q0 106 73.5 178t178.5 72q170 0 231 -152q18 -47 18 -98q0 -145 -123 -218q-57 -34 -126 -34q-106 0 -179 73t-73 179z" />
<glyph unicode="&#x2026;" horiz-adv-x="2048" d="M238 201q0 96 104 96t104 -96q0 -97 -104 -97q-44 0 -74 27t-30 70zM920 201q0 96 104 96t104 -96q0 -97 -104 -97q-44 0 -74 27t-30 70zM1602 201q0 96 104 96t104 -96q0 -97 -104 -97q-44 0 -74 27t-30 70z" />
<glyph unicode="&#x202f;" horiz-adv-x="405" />
<glyph unicode="&#x2039;" horiz-adv-x="469" d="M70 578l301 376h37l-195 -376l195 -377h-37z" />
<glyph unicode="&#x203a;" horiz-adv-x="469" d="M61 201l195 377l-195 376h37l301 -376l-301 -377h-37z" />
<glyph unicode="&#x205f;" horiz-adv-x="507" />
<glyph unicode="&#x2122;" horiz-adv-x="2005" d="M31 1284l20 201h729l23 -201h-35q-15 102 -89 128q-40 13 -104 13h-71v-581q0 -82 18 -104t84 -27v-35h-375v35q40 4 57 10q31 12 39 39q7 24 7 82v581h-80q-88 0 -128 -27q-45 -31 -60 -114h-35zM870 678v35q92 0 107 45q8 27 8 86v467q0 114 -40 129q-24 8 -75 8v37 h289l273 -574l264 574h278v-37q-44 -2 -61 -7q-32 -10 -39.5 -38t-7.5 -92v-467q0 -105 36 -119q22 -9 72 -12v-35h-399v35q78 2 99.5 26.5t21.5 104.5l-4 491l-303 -657h-33l-309 649v-483q0 -74 12 -97q19 -34 84 -34h37v-35h-310z" />
<glyph unicode="&#xe000;" horiz-adv-x="940" d="M0 940h940v-940h-940v940z" />
<glyph unicode="&#xfb01;" horiz-adv-x="1087" d="M592 129v39q88 0 127 30q43 34 43 119v412q0 74 -23 87q-13 7 -41 13l-96 19v33l266 92h31v-688q0 -117 148 -117v-39h-455zM727 1356q0 34 27 56t61 22q36 0 63 -21.5t27 -56.5t-27 -56.5t-63 -21.5q-34 0 -61 22t-27 56zM33 850v35q84 18 151 55q0 133 34 229 q37 104 124 191q145 145 291 145q108 0 181 -57q30 -24 30 -39t-22 -56.5t-34 -41.5q-6 0 -77 49q-76 51 -162 51q-227 0 -227 -315v-156h206l15 -90h-221v-561q0 -74 40 -100q31 -21 111 -21h78v-39h-506v39q111 0 129 52q10 28 10 89v541h-151z" />
<glyph unicode="&#xfb02;" horiz-adv-x="1047" d="M567 129v39q87 0 124 25q46 31 46 112v989q0 45 -10 59q-12 19 -53 23l-92 10v35l262 84h30v-1214q0 -123 119 -123h35v-39h-461zM33 850v35q84 18 151 55q0 133 34 229q37 104 124 191q145 145 291 145q108 0 181 -57q30 -24 30 -39t-22 -56.5t-34 -41.5q-6 0 -77 49 q-76 51 -162 51q-227 0 -227 -315v-156h206l15 -90h-221v-561q0 -74 40 -100q31 -21 111 -21h78v-39h-506v39q111 0 129 52q10 28 10 89v541h-151z" />
<glyph unicode="&#xfb03;" horiz-adv-x="1642" d="M1147 129v39q88 0 127 30q43 34 43 119v412q0 74 -23 87q-13 7 -41 13l-96 19v33l266 92h31v-688q0 -117 148 -117v-39h-455zM1282 1356q0 34 27 56t61 22q36 0 63 -21.5t27 -56.5t-27 -56.5t-63 -21.5q-34 0 -61 22t-27 56zM588 850v35q84 18 151 55q0 133 34 229 q37 104 124 191q145 145 291 145q108 0 181 -57q30 -24 30 -39t-22 -56.5t-34 -41.5q-6 0 -77 49q-76 51 -162 51q-227 0 -227 -315v-156h206l15 -90h-221v-561q0 -74 40 -100q31 -21 111 -21h78v-39h-506v39q111 0 129 52q10 28 10 89v541h-151zM33 850v35q84 18 151 55 q0 133 34 229q37 104 124 191q145 145 291 145q108 0 181 -57q30 -24 30 -39t-22 -56.5t-34 -41.5q-6 0 -77 49q-76 51 -162 51q-227 0 -227 -315v-156h206l15 -90h-221v-561q0 -74 40 -100q31 -21 111 -21h78v-39h-506v39q111 0 129 52q10 28 10 89v541h-151z" />
<glyph unicode="&#xfb04;" horiz-adv-x="1602" d="M1122 129v39q87 0 124 25q46 31 46 112v989q0 45 -10 59q-12 19 -53 23l-92 10v35l262 84h30v-1214q0 -123 119 -123h35v-39h-461zM588 850v35q84 18 151 55q0 133 34 229q37 104 124 191q145 145 291 145q108 0 181 -57q30 -24 30 -39t-22 -56.5t-34 -41.5q-6 0 -77 49 q-76 51 -162 51q-227 0 -227 -315v-156h206l15 -90h-221v-561q0 -74 40 -100q31 -21 111 -21h78v-39h-506v39q111 0 129 52q10 28 10 89v541h-151zM33 850v35q84 18 151 55q0 133 34 229q37 104 124 191q145 145 291 145q108 0 181 -57q30 -24 30 -39t-22 -56.5t-34 -41.5 q-6 0 -77 49q-76 51 -162 51q-227 0 -227 -315v-156h206l15 -90h-221v-561q0 -74 40 -100q31 -21 111 -21h78v-39h-506v39q111 0 129 52q10 28 10 89v541h-151z" />
</font>
</defs>
</svg>
