<?xml version="1.0" encoding="utf-8"?>
<!-- Generator: Adobe Illustrator 16.0.4, SVG Export Plug-In . SVG Version: 6.00 Build 0)  -->
<!DOCTYPE svg PUBLIC "-//W3C//DTD SVG 1.1//EN" "http://www.w3.org/Graphics/SVG/1.1/DTD/svg11.dtd">
<svg version="1.1" id="Layer_1" xmlns="http://www.w3.org/2000/svg" xmlns:xlink="http://www.w3.org/1999/xlink" x="0px" y="0px"
	 width="200px" height="44.4px" viewBox="0 0 200 44.4" style="enable-background:new 0 0 200 44.4;" xml:space="preserve">
<style type="text/css">
<![CDATA[
	.st0{fill:#463D35;}
	.st1{fill:#EDE7D7;}
	.st2{fill:#5A4C45;}
	.st3{fill:#5F534D;}
	.st4{fill:#718455;}
	.st5{fill:#DFD5BB;}
]]>
</style>
<g>
	<g>
		<path class="st4" d="M27.1,0.5c-1-0.2-1.9-0.4-2.9-0.5c-1.6,2.2-3.5,5.2-4.6,7.4l-1.7,2.9C22.2,8.6,26,4.7,27.1,0.5z"/>
		<path class="st4" d="M2.9,27.3c0.9-1.4,3.3-5.8,7.7-13c-1.9-0.3-3.1-1.1-3.4-2.1c0.5,0.1,1,0.2,1.5,0.2c0.9,0,1.9-0.1,3.2-0.4
			l1.4-2.4l3.5-5.9l1.4-2.3L19,0.1C8.3,1.7,0,11,0,22.2c0,2.7,0.5,5.4,1.4,7.8C1.9,29.1,2.4,28.2,2.9,27.3z"/>
		<path class="st4" d="M39.3,28.6c-1.4,1.2-2.9,2.1-4.1,2.6c0.9,0.3,1.4,0.9,1.5,1.5c0.5-0.2,2.7-1.3,6.6-3.4
			c0.7-2.1,1.1-4.3,1.2-6.7C43.2,24.8,41.5,26.8,39.3,28.6z"/>
		<path class="st4" d="M27.6,3.5c-2.1,4.1-4.9,7.1-8.3,8.7c-0.9,0.5-2.1,1-3.5,1.5l-1.8,3c2.6-2,4.9-3,6.9-2.9
			c2.1,0.2,3.1,1.7,3,4.6c-0.1,2.1-1.1,4.5-2.8,7.3l-3.3,4.7c-0.7,0.9-0.9,1.5-0.9,1.8c0,0.2,0.1,0.3,0.3,0.3c0,0,0,0,0.1,0
			c1.4-0.7,2.9-1.5,4.2-2.2c1.4-1,3.7-3.1,6.7-6.2c3.3-3.5,5.7-5.8,7.3-7.1c2.9-2.2,5.3-3.2,7.5-3C40.4,7.7,35.2,2.8,28.7,0.9
			C28.5,1.7,28.1,2.6,27.6,3.5z"/>
		<path class="st4" d="M24.2,40.3c2.5-2.4,5-4.3,7.5-5.6l0.6-1c0.2-0.7-0.4-1.1-1.8-1.6c-1-0.1-1.4-0.5-1.3-1.2
			c1.1,0.4,2.7-0.1,4.7-1.4c2.6-1.7,4.7-4,6.3-6.9c0.5-0.8,0.7-1.4,0.7-2c0-1.2-0.8-1.7-2.2-1.6c-1.2,0.1-3,1.2-5,3.4l-6.4,6.9
			c-1,0.9-2,1.8-3.1,2.5c-1.3,1.2-4.2,2.7-8.6,4.3c-3.2,0.8-5,0.6-5.3-0.7c-0.2-0.9,1-3.1,3.5-6.6c2.8-3.8,4.2-6.3,4.5-7.5
			c0.5-2.2-0.2-3.3-1.8-3.3c-1.4,0-3.2,1.2-5.5,3.6l-7,11.8c-0.2,0.3-0.3,0.5-0.4,0.7c3.7,5.7,9.8,9.6,17,10.2
			C21.5,43.1,22.8,41.7,24.2,40.3z"/>
		<path class="st4" d="M41.1,33.8c-0.9,0.5-2.6,1.2-5.4,2.2l-0.7,1.2c-0.8,1.6-1.6,3.1-2.5,4.6c3.6-1.9,6.5-4.7,8.6-8.1
			C41.2,33.8,41.1,33.8,41.1,33.8z"/>
		<path class="st4" d="M30,38.5c-2.4,1.4-4.8,3.5-6.8,5.9c1.2-0.1,2.3-0.2,3.5-0.4c0.5-0.7,1-1.5,1.5-2.3C29.2,40.2,29.8,39,30,38.5
			z"/>
	</g>
	<g>
		<g>
			<path class="st0" d="M58.3,21.1v1.7h-6.5v-1.7l1.6-0.5v-9.4l-1.6-0.6V8.9l6.5-0.1v1.8l-1.6,0.6v3.3h5.5v-3.3l-1.6-0.6V8.9
				l6.5-0.1v1.8l-1.6,0.6v9.4l1.6,0.5v1.7h-6.5v-1.7l1.6-0.5v-3.8h-5.5v3.8L58.3,21.1z"/>
			<path class="st0" d="M79.9,22.7l-4.2,0.1l-0.4-1.3c-0.1,0.1-0.3,0.2-0.5,0.4c-0.2,0.2-0.6,0.4-1.2,0.7C73,22.9,72.4,23,71.9,23
				c-1,0-1.8-0.3-2.4-0.8c-0.6-0.5-0.9-1.3-0.9-2.3c0-2.2,1.7-3.3,5.1-3.3h1.5v-1.1c0-1-0.5-1.5-1.6-1.5c-0.3,0-0.6,0-1,0.1
				c-0.3,0.1-0.5,0.1-0.7,0.2l-0.2,0.1l-0.3,1.3h-1.9l-0.2-2.9c1.7-0.5,3.2-0.8,4.6-0.8c1.6,0,2.7,0.3,3.4,0.9c0.7,0.6,1,1.6,1,3.1
				v4.9l1.6,0.4V22.7z M71.7,19.6c0,0.8,0.4,1.2,1.2,1.2c0.3,0,0.7-0.1,1.1-0.3s0.7-0.4,0.9-0.6l0.3-0.3v-1.3H74
				c-0.8,0-1.4,0.1-1.8,0.3C71.9,18.8,71.7,19.1,71.7,19.6z"/>
			<path class="st0" d="M83.2,19.3l0.2,1.4c0.5,0.1,1,0.2,1.7,0.2c1.1,0,1.7-0.4,1.7-1.1c0-0.3-0.2-0.6-0.6-0.8
				c-0.4-0.2-0.9-0.4-1.4-0.6c-0.5-0.2-1.1-0.3-1.6-0.6c-0.5-0.2-1-0.5-1.4-1c-0.4-0.5-0.6-1-0.6-1.7c0-1.2,0.4-2,1.2-2.6
				c0.8-0.6,1.9-0.8,3.1-0.8c0.6,0,1.2,0,1.8,0.1c0.7,0.1,1.2,0.2,1.5,0.3l0.6,0.2c0,0.7-0.1,1.7-0.1,3h-1.9l-0.3-1.3
				C86.8,14,86.4,14,85.8,14c-0.4,0-0.8,0.1-1,0.3c-0.3,0.2-0.4,0.4-0.4,0.8c0,0.3,0.2,0.6,0.6,0.8c0.4,0.2,0.8,0.4,1.4,0.6
				c0.5,0.2,1.1,0.3,1.6,0.5c0.5,0.2,1,0.5,1.4,1c0.4,0.4,0.6,1,0.6,1.6c0,1.1-0.4,2-1.3,2.6c-0.9,0.6-2.1,0.9-3.5,0.9
				c-0.6,0-1.2,0-1.9-0.1c-0.6-0.1-1.1-0.1-1.5-0.2l-0.5-0.1v-3.2H83.2z"/>
			<path class="st0" d="M91.3,7.6l4.8-0.2v5.8c1.2-0.9,2.3-1.4,3.6-1.4c1.1,0,1.9,0.3,2.4,0.9c0.6,0.6,0.8,1.5,0.8,2.6v5.3l1.5,0.5
				v1.6h-5.7v-1.6l1.1-0.5v-4.8c0-1.1-0.5-1.6-1.4-1.6c-0.4,0-0.7,0.1-1.1,0.3c-0.4,0.2-0.7,0.4-0.9,0.5l-0.3,0.3v5.3l1.1,0.5v1.6
				h-5.9v-1.6l1.7-0.5V9.6l-1.7-0.4V7.6z"/>
			<path class="st0" d="M115.9,18l-7,0.1c0,0.8,0.3,1.5,0.8,1.9c0.5,0.5,1.1,0.7,1.8,0.7c0.5,0,1.1-0.1,1.7-0.2
				c0.6-0.2,1.1-0.3,1.4-0.5l0.5-0.2l0.9,1.6c-0.2,0.1-0.4,0.3-0.7,0.5c-0.3,0.2-0.8,0.4-1.7,0.8c-0.9,0.3-1.7,0.5-2.5,0.5
				c-1.8,0-3.1-0.5-4.1-1.4c-0.9-0.9-1.4-2.3-1.4-4c0-1.8,0.5-3.2,1.5-4.2c1-1,2.4-1.6,4.2-1.6c1.5,0,2.7,0.4,3.6,1.2
				c0.8,0.8,1.2,2,1.2,3.4L115.9,18z M111,14.2c-0.6,0-1.1,0.2-1.4,0.6c-0.4,0.4-0.6,0.9-0.7,1.5h3.8
				C112.8,14.9,112.2,14.2,111,14.2z"/>
			<path class="st0" d="M135.5,15.5v5.3l1.4,0.5v1.6h-5.7v-1.6l1.1-0.5v-4.7c0-0.6-0.1-1-0.3-1.2c-0.2-0.3-0.5-0.4-1-0.4
				c-0.4,0-0.8,0.1-1.2,0.3c-0.4,0.2-0.7,0.3-0.9,0.5l-0.3,0.3v5.3l1.1,0.5v1.6h-5.3v-1.6l1.1-0.5v-4.7c0-0.6-0.1-1-0.3-1.2
				c-0.2-0.3-0.5-0.4-0.9-0.4c-0.4,0-0.8,0.1-1.2,0.3c-0.4,0.2-0.7,0.3-0.9,0.5l-0.3,0.3v5.3l1.1,0.5v1.6h-5.9v-1.6l1.6-0.5v-6.5
				l-1.6-0.4v-1.6l4.4-0.2l0.1,1.4c0.1-0.1,0.3-0.3,0.6-0.4c0.2-0.2,0.7-0.4,1.3-0.7c0.6-0.3,1.2-0.4,1.8-0.4c1.4,0,2.3,0.6,2.9,1.7
				c0.2-0.2,0.5-0.4,0.7-0.6c0.3-0.2,0.7-0.4,1.3-0.7c0.6-0.3,1.2-0.4,1.8-0.4c1.1,0,1.9,0.3,2.4,0.9
				C135.2,13.4,135.5,14.3,135.5,15.5z"/>
			<path class="st0" d="M138.4,13.1h7.5v1l-5.9,7.7h4.6l0.3-1.4h1v2.5H138v-1l5.9-7.7h-4.1l-0.4,1.4h-1V13.1z"/>
			<path class="st0" d="M146.6,22.8V22l1.2-0.3l3.4-8.6l1.5-0.1l3.3,8.6l1.2,0.3v0.8h-4.3V22l1.4-0.3l-0.6-1.5h-3.8l-0.6,1.5
				l1.4,0.3v0.8H146.6z M151.8,14.9l-1.5,4.2h3L151.8,14.9z"/>
			<path class="st0" d="M161.8,22v0.8h-4.2V22l1.3-0.3v-7.5l-1.3-0.3v-0.8l4.2-0.1v0.8l-1.4,0.3v3.1h5v-3.1l-1.4-0.3v-0.8l4.2-0.1
				v0.8l-1.3,0.3v7.5l1.3,0.3v0.8H164V22l1.4-0.3v-3.3h-5v3.3L161.8,22z"/>
			<path class="st0" d="M169.4,22.8V22l1.3-0.3v-7.5l-1.3-0.3v-0.8l2.8-0.1h1.6c1,0,1.9,0.2,2.4,0.7c0.6,0.4,0.9,1.1,0.9,1.8
				c0,1.4-0.6,2.3-1.9,2.7c0.2,0.2,0.5,0.6,0.9,1.3l1.2,2.2l1.1,0.2v0.8h-2.2l-1.3-2.6c-0.3-0.7-0.6-1.1-0.9-1.4
				c-0.3-0.2-0.6-0.3-1.1-0.3h-0.7v3.1l1.3,0.3v0.8H169.4z M172.2,14.2v3.3h1.1c0.7,0,1.3-0.1,1.7-0.5c0.4-0.3,0.6-0.7,0.6-1.2
				c0-0.5-0.2-0.9-0.5-1.2c-0.3-0.3-0.8-0.5-1.3-0.5H172.2z"/>
			<path class="st0" d="M178.5,22.8V22l1.2-0.3l3.4-8.6l1.5-0.1l3.3,8.6L189,22v0.8h-4.3V22l1.4-0.3l-0.6-1.5h-3.8l-0.6,1.5l1.4,0.3
				v0.8H178.5z M183.7,14.9l-1.5,4.2h3L183.7,14.9z"/>
			<path class="st0" d="M196.9,22.8l-4.9-7.7v6.6l1.4,0.3v0.8h-4V22l1.3-0.3v-7.5l-1.3-0.3v-0.8l3.1-0.1l4.9,7.8v-6.7l-1.3-0.3v-0.8
				l3.8-0.1v0.8l-1.3,0.3v8.6H196.9z"/>
		</g>
		<g>
			<path class="st3" d="M85.7,28.6v3.3c0,1-0.2,1.7-0.7,2.2c-0.4,0.5-1.2,0.7-2.2,0.7c-1,0-1.8-0.2-2.2-0.7C80.3,33.7,80,33,80,32.1
				v-3.5l-0.9-0.2v-0.5l3,0v0.6l-1,0.2v3.5c0,0.7,0.1,1.2,0.4,1.5c0.3,0.3,0.7,0.4,1.4,0.4s1.1-0.2,1.3-0.5c0.3-0.3,0.4-0.9,0.4-1.6
				v-3.3l-1-0.2v-0.5l3,0v0.6L85.7,28.6z"/>
			<path class="st3" d="M90.4,34.2v0.6h-2.9v-0.6l0.9-0.2v-5.4l-0.9-0.2v-0.5l2.9,0v0.6l-0.9,0.2V34L90.4,34.2z"/>
			<path class="st3" d="M99.9,32c0.1,0,0.2,0,0.3-0.1c0.1-0.1,0.1-0.1,0.1-0.2c0,0,0-0.1,0-0.1c0,0-0.1-0.1-0.1-0.1
				c0,0-0.1-0.1-0.2-0.1c-0.1,0-0.2,0-0.3,0c-0.2,0-0.3,0-0.5,0c-0.2,0-0.3,0.1-0.5,0.1c0.1,0.1,0.3,0.3,0.3,0.5
				c0.1,0.2,0.1,0.4,0.1,0.6c0,0.3-0.1,0.6-0.2,0.9c-0.1,0.3-0.3,0.5-0.6,0.7c-0.2,0.2-0.5,0.3-0.8,0.4c-0.3,0.1-0.6,0.1-1,0.1
				s-0.7,0-1-0.1c-0.3-0.1-0.6-0.2-0.9-0.4c-0.3-0.2-0.5-0.4-0.6-0.7c-0.2-0.3-0.2-0.6-0.2-1c0-0.4,0.1-0.7,0.2-0.9s0.3-0.5,0.5-0.7
				c0.2-0.2,0.4-0.3,0.6-0.5c0.2-0.1,0.4-0.2,0.7-0.3c-0.1-0.1-0.3-0.1-0.4-0.2c-0.1-0.1-0.2-0.2-0.3-0.3c-0.1-0.1-0.2-0.2-0.2-0.4
				c-0.1-0.1-0.1-0.3-0.1-0.5c0-0.2,0-0.4,0.2-0.6c0.1-0.2,0.2-0.3,0.4-0.5c0.2-0.1,0.4-0.2,0.6-0.3c0.2-0.1,0.4-0.1,0.7-0.1
				c0.3,0,0.5,0,0.7,0.1c0.2,0.1,0.4,0.1,0.5,0.2c0.1,0.1,0.2,0.2,0.3,0.3C98,28,98,28.1,98,28.2c0,0.1,0,0.2-0.1,0.3
				c0,0.1-0.1,0.2-0.2,0.2c-0.1,0.1-0.2,0.1-0.3,0.2c-0.1,0-0.2,0.1-0.3,0.1c-0.1,0-0.2,0-0.2,0c-0.1,0-0.1-0.1-0.2-0.1
				s-0.1-0.1-0.1-0.1c0,0-0.1-0.1-0.1-0.1l0.2-0.1c0,0,0,0,0.1,0.1c0,0,0.1,0,0.1,0.1c0,0,0.1,0,0.1,0.1c0.1,0,0.1,0,0.2,0
				c0.1,0,0.2,0,0.3-0.1c0.1-0.1,0.1-0.2,0.1-0.3c0-0.1,0-0.2-0.1-0.2c0-0.1-0.1-0.1-0.2-0.2c-0.1-0.1-0.2-0.1-0.3-0.2
				s-0.3-0.1-0.4-0.1c-0.2,0-0.4,0-0.6,0.1c-0.2,0.1-0.3,0.2-0.4,0.3c-0.1,0.1-0.2,0.3-0.3,0.4c-0.1,0.2-0.1,0.3-0.1,0.5
				c0,0.1,0,0.2,0.1,0.4c0,0.1,0.1,0.2,0.1,0.3c0.1,0.1,0.2,0.2,0.2,0.3c0.1,0.1,0.2,0.1,0.4,0.2c0.1,0,0.1,0,0.2,0
				c0.1,0,0.1,0,0.2,0c0.1,0,0.2,0,0.2,0c0.1,0,0.1,0.1,0.1,0.1c0,0.1,0,0.1-0.1,0.1c-0.1,0-0.1,0.1-0.2,0.1c-0.1,0-0.1,0-0.2,0
				c-0.1,0-0.1,0-0.2,0c-0.2,0.1-0.4,0.1-0.6,0.3c-0.2,0.1-0.3,0.3-0.4,0.5c-0.1,0.2-0.2,0.4-0.3,0.6c-0.1,0.2-0.1,0.4-0.1,0.6
				c0,0.3,0,0.5,0.1,0.8c0.1,0.3,0.2,0.5,0.4,0.7c0.2,0.2,0.4,0.4,0.7,0.5c0.3,0.1,0.6,0.2,0.9,0.2c0.3,0,0.5,0,0.7-0.1
				c0.2-0.1,0.4-0.2,0.6-0.3c0.2-0.1,0.3-0.3,0.4-0.5c0.1-0.2,0.2-0.5,0.2-0.7c0-0.2,0-0.4-0.1-0.6c-0.1-0.2-0.2-0.3-0.3-0.4
				c-0.1,0.1-0.3,0.1-0.4,0.2c-0.1,0.1-0.3,0.1-0.4,0.2c-0.1,0-0.3,0.1-0.4,0.1c-0.1,0-0.3,0-0.5,0c-0.1,0-0.2,0-0.3,0
				c-0.1,0-0.2-0.1-0.2-0.1c-0.1,0-0.1-0.1-0.1-0.2c0-0.1,0-0.1,0-0.2c0-0.1,0-0.2,0.1-0.3c0.1-0.1,0.1-0.1,0.2-0.2
				c0.1-0.1,0.2-0.1,0.4-0.1c0.1,0,0.3,0,0.4,0c0.2,0,0.3,0,0.5,0.1c0.2,0,0.4,0.1,0.5,0.2c0.2-0.1,0.4-0.2,0.7-0.3
				c0.2-0.1,0.5-0.1,0.8-0.1c0.2,0,0.4,0,0.5,0.1c0.1,0,0.3,0.1,0.3,0.2c0.1,0.1,0.2,0.2,0.2,0.2c0,0.1,0.1,0.2,0.1,0.3
				c0,0.1,0,0.2,0,0.3c0,0.1-0.1,0.2-0.2,0.2c-0.1,0.1-0.2,0.1-0.3,0.2s-0.2,0.1-0.3,0.1L99.9,32z M97,31.2c-0.2,0-0.4,0-0.5,0.1
				c-0.1,0-0.2,0.1-0.2,0.2c0,0,0,0.1,0.1,0.1c0.1,0,0.2,0.1,0.3,0.1c0.2,0,0.3,0,0.5-0.1c0.2-0.1,0.4-0.1,0.5-0.2
				c-0.1,0-0.3-0.1-0.4-0.1C97.3,31.2,97.2,31.2,97,31.2z"/>
			<path class="st3" d="M110.5,28.6v3.3c0,1-0.2,1.7-0.7,2.2c-0.4,0.5-1.2,0.7-2.2,0.7c-1,0-1.8-0.2-2.2-0.7
				c-0.4-0.5-0.6-1.2-0.6-2.1v-3.5l-0.9-0.2v-0.5l3,0v0.6l-1,0.2v3.5c0,0.7,0.1,1.2,0.4,1.5c0.3,0.3,0.7,0.4,1.4,0.4
				s1.1-0.2,1.3-0.5c0.3-0.3,0.4-0.9,0.4-1.6v-3.3l-1-0.2v-0.5l3,0v0.6L110.5,28.6z"/>
			<path class="st3" d="M112,34.8v-0.6l0.7-0.2l2.2-2.8l-2-2.6l-0.8-0.2v-0.5l2.8,0v0.6l-0.7,0.2l1.4,1.9l1.4-1.9l-0.7-0.2v-0.5
				l2.8,0v0.6l-1,0.2l-1.9,2.6l2.1,2.8l0.9,0.2v0.6h-2.9v-0.6l0.6-0.2l-1.5-2l-1.6,2l0.9,0.2v0.6H112z"/>
			<path class="st3" d="M122.3,34.8v-0.6l0.9-0.2v-5.4l-0.9-0.2v-0.5l2,0h1.3c0.5,0,1,0.1,1.4,0.2c0.4,0.1,0.8,0.4,1.1,0.7
				c0.3,0.3,0.5,0.6,0.6,1.1c0.2,0.4,0.2,0.9,0.2,1.4c0,0.5-0.1,1-0.3,1.5c-0.2,0.4-0.4,0.8-0.7,1.1c-0.3,0.3-0.7,0.6-1.1,0.7
				c-0.4,0.2-0.9,0.3-1.4,0.3H122.3z M124.3,34h1.2c0.7,0,1.2-0.2,1.6-0.7c0.4-0.4,0.6-1.1,0.6-2c0-0.9-0.2-1.6-0.6-2
				c-0.4-0.4-0.9-0.6-1.6-0.6h-1.3V34z"/>
			<path class="st3" d="M134.6,32.2l-3.7,0c0,0.5,0.1,1,0.4,1.3c0.3,0.3,0.7,0.5,1.1,0.5c0.2,0,0.3,0,0.5,0c0.2,0,0.3-0.1,0.4-0.1
				c0.1,0,0.3-0.1,0.4-0.1c0.1-0.1,0.2-0.1,0.3-0.1l0.2-0.1l0.4,0.5c-0.2,0.2-0.5,0.3-0.7,0.4c-0.2,0.1-0.4,0.2-0.7,0.3
				c-0.3,0.1-0.6,0.1-0.9,0.1c-0.8,0-1.5-0.2-1.9-0.7c-0.4-0.5-0.6-1.1-0.6-1.9c0-0.4,0.1-0.8,0.2-1.1c0.1-0.3,0.3-0.6,0.5-0.9
				c0.2-0.2,0.5-0.4,0.8-0.6c0.3-0.1,0.7-0.2,1.1-0.2c1.5,0,2.2,0.8,2.2,2.3L134.6,32.2z M131,31.5h2.5c0-0.4-0.1-0.7-0.3-1
				c-0.2-0.3-0.5-0.4-0.9-0.4c-0.4,0-0.7,0.1-1,0.4C131.2,30.8,131,31.1,131,31.5z"/>
			<path class="st3" d="M137.4,29.5v0.6l-0.7,0.1l1.3,3.7l1.3-3.6l-0.7-0.2v-0.5l2.4,0v0.6l-0.6,0.1l-1.8,4.6h-1.2l-1.7-4.5
				l-0.5-0.2v-0.5L137.4,29.5z"/>
			<path class="st3" d="M146.1,32.2l-3.7,0c0,0.5,0.1,1,0.4,1.3c0.3,0.3,0.6,0.5,1.1,0.5c0.2,0,0.3,0,0.5,0c0.2,0,0.3-0.1,0.4-0.1
				c0.1,0,0.3-0.1,0.4-0.1c0.1-0.1,0.2-0.1,0.3-0.1l0.2-0.1l0.4,0.5c-0.2,0.2-0.5,0.3-0.7,0.4c-0.2,0.1-0.4,0.2-0.7,0.3
				c-0.3,0.1-0.6,0.1-0.9,0.1c-0.8,0-1.5-0.2-1.9-0.7c-0.4-0.5-0.6-1.1-0.6-1.9c0-0.4,0.1-0.8,0.2-1.1c0.1-0.3,0.3-0.6,0.5-0.9
				c0.2-0.2,0.5-0.4,0.8-0.6c0.3-0.1,0.7-0.2,1-0.2c1.5,0,2.2,0.8,2.2,2.3L146.1,32.2z M142.5,31.5h2.5c0-0.4-0.1-0.7-0.3-1
				c-0.2-0.3-0.5-0.4-0.9-0.4c-0.4,0-0.7,0.1-1,0.4C142.7,30.8,142.5,31.1,142.5,31.5z"/>
			<path class="st3" d="M148.8,27.1V34l1.1,0.2v0.5h-3v-0.5l0.9-0.2v-6.1l-0.9-0.2v-0.5L148.8,27.1z"/>
			<path class="st3" d="M150.3,32.2c0-0.4,0.1-0.8,0.2-1.2c0.1-0.3,0.3-0.6,0.5-0.9c0.2-0.2,0.5-0.4,0.9-0.6
				c0.3-0.1,0.7-0.2,1.1-0.2c0.8,0,1.4,0.2,1.8,0.7c0.4,0.5,0.7,1.1,0.7,2c0,0.4-0.1,0.8-0.2,1.1c-0.1,0.3-0.3,0.6-0.5,0.9
				c-0.2,0.3-0.5,0.4-0.8,0.6c-0.3,0.1-0.7,0.2-1.1,0.2c-0.8,0-1.4-0.2-1.9-0.7C150.5,33.7,150.3,33.1,150.3,32.2z M152.9,30.2
				c-1,0-1.5,0.7-1.5,1.9c0,1.3,0.5,1.9,1.5,1.9c0.5,0,0.9-0.2,1.1-0.5c0.2-0.3,0.4-0.8,0.4-1.5C154.4,30.8,153.9,30.2,152.9,30.2z"
				/>
			<path class="st3" d="M158,29.5L158,30c0.5-0.4,1-0.7,1.6-0.7c0.7,0,1.3,0.2,1.7,0.7c0.4,0.5,0.6,1.1,0.6,2c0,0.4-0.1,0.8-0.2,1.1
				c-0.1,0.3-0.3,0.6-0.5,0.9c-0.2,0.3-0.5,0.4-0.9,0.6c-0.4,0.1-0.8,0.2-1.2,0.2c-0.3,0-0.6,0-0.9-0.1v1.6l1.1,0.2V37h-3v-0.5
				l0.8-0.2v-6l-0.9-0.2v-0.5L158,29.5z M158.1,30.9v3c0.2,0.1,0.6,0.2,1.1,0.2c1.1,0,1.6-0.7,1.6-2c0-0.6-0.1-1-0.3-1.4
				c-0.2-0.3-0.6-0.5-1-0.5c-0.3,0-0.5,0.1-0.7,0.2C158.4,30.5,158.3,30.6,158.1,30.9z"/>
			<path class="st3" d="M167.6,32.2l-3.7,0c0,0.5,0.1,1,0.4,1.3c0.3,0.3,0.6,0.5,1.1,0.5c0.2,0,0.3,0,0.5,0c0.2,0,0.3-0.1,0.4-0.1
				c0.1,0,0.3-0.1,0.4-0.1c0.1-0.1,0.2-0.1,0.3-0.1l0.2-0.1l0.4,0.5c-0.2,0.2-0.5,0.3-0.7,0.4c-0.2,0.1-0.4,0.2-0.7,0.3
				c-0.3,0.1-0.6,0.1-0.9,0.1c-0.8,0-1.5-0.2-1.9-0.7c-0.4-0.5-0.6-1.1-0.6-1.9c0-0.4,0.1-0.8,0.2-1.1c0.1-0.3,0.3-0.6,0.5-0.9
				c0.2-0.2,0.5-0.4,0.8-0.6c0.3-0.1,0.7-0.2,1.1-0.2c1.5,0,2.2,0.8,2.2,2.3L167.6,32.2z M164,31.5h2.5c0-0.4-0.1-0.7-0.3-1
				c-0.2-0.3-0.5-0.4-0.9-0.4c-0.4,0-0.7,0.1-1,0.4C164.1,30.8,164,31.1,164,31.5z"/>
			<path class="st3" d="M170.2,29.5l0.1,0.7c0.5-0.6,1.1-0.8,1.6-0.8c0.3,0,0.6,0,0.8,0.1l0.1,0l-0.1,1.4h-0.7l-0.2-0.7
				c-0.6,0-1.1,0.3-1.5,0.8v3l1.1,0.2v0.5h-3v-0.5l0.9-0.2v-3.7l-0.9-0.2v-0.5L170.2,29.5z"/>
		</g>
		<rect x="51.9" y="30.8" class="st3" width="23.8" height="0.9"/>
		<rect x="176.3" y="30.7" class="st3" width="23.7" height="0.9"/>
	</g>
</g>
</svg>
